<svg width="16" height="16" viewBox="0 0 16 16" fill="none" xmlns="http://www.w3.org/2000/svg">
<g id="archive">
<path id="Icon" d="M2.66732 5.33106C2.55798 5.32824 2.47858 5.32191 2.4072 5.30771C1.87828 5.2025 1.46481 4.78904 1.3596 4.26012C1.33398 4.13132 1.33398 3.97644 1.33398 3.66667C1.33398 3.3569 1.33398 3.20201 1.3596 3.07321C1.46481 2.54429 1.87828 2.13083 2.4072 2.02562C2.536 2 2.69088 2 3.00065 2H13.0007C13.3104 2 13.4653 2 13.5941 2.02562C14.123 2.13083 14.5365 2.54429 14.6417 3.07321C14.6673 3.20201 14.6673 3.3569 14.6673 3.66667C14.6673 3.97644 14.6673 4.13132 14.6417 4.26012C14.5365 4.78904 14.123 5.2025 13.5941 5.30771C13.5227 5.32191 13.4433 5.32824 13.334 5.33106M6.66732 8.66667H9.33398M2.66732 5.33333H13.334V10.8C13.334 11.9201 13.334 12.4802 13.116 12.908C12.9243 13.2843 12.6183 13.5903 12.242 13.782C11.8141 14 11.2541 14 10.134 14H5.86732C4.74721 14 4.18716 14 3.75934 13.782C3.38301 13.5903 3.07705 13.2843 2.8853 12.908C2.66732 12.4802 2.66732 11.9201 2.66732 10.8V5.33333Z" stroke="white" stroke-linecap="round" stroke-linejoin="round"/>
</g>
</svg>
