<svg width="16" height="16" viewBox="0 0 16 16" fill="none" xmlns="http://www.w3.org/2000/svg">
<g id="at-sign" clip-path="url(#clip0_7871_17205)">
<path id="Icon" d="M10.6654 5.33162V8.66495C10.6654 9.19538 10.8761 9.70409 11.2512 10.0792C11.6262 10.4542 12.1349 10.665 12.6654 10.665C13.1958 10.665 13.7045 10.4542 14.0796 10.0792C14.4547 9.70409 14.6654 9.19538 14.6654 8.66495V7.99828C14.6653 6.49364 14.1562 5.03327 13.2209 3.85464C12.2856 2.67601 10.9791 1.84843 9.5138 1.50648C8.04852 1.16453 6.51066 1.32831 5.15027 1.9712C3.78988 2.61408 2.68697 3.69825 2.02088 5.04743C1.35478 6.39661 1.16468 7.93144 1.48148 9.40236C1.79828 10.8733 2.60336 12.1938 3.76579 13.1491C4.92823 14.1045 6.37966 14.6385 7.88408 14.6644C9.38851 14.6903 10.8574 14.2064 12.052 13.2916M10.6654 7.99828C10.6654 9.47104 9.47147 10.665 7.99871 10.665C6.52595 10.665 5.33204 9.47104 5.33204 7.99828C5.33204 6.52552 6.52595 5.33162 7.99871 5.33162C9.47147 5.33162 10.6654 6.52552 10.6654 7.99828Z" stroke="currentColor" stroke-linecap="round" stroke-linejoin="round"/>
</g>
<defs>
<clipPath id="clip0_7871_17205">
<rect width="16" height="16" fill="white"/>
</clipPath>
</defs>
</svg>
