<svg width="16" height="17" viewBox="0 0 16 17" fill="none" xmlns="http://www.w3.org/2000/svg">
<g id="Zap 3">
<path id="Vector" fill-rule="evenodd" clip-rule="evenodd" d="M8.93213 1.22118C9.2036 1.33903 9.36486 1.62174 9.3282 1.91541L8.7552 6.49939L12.8851 6.49938C13.0458 6.49936 13.2085 6.49932 13.3415 6.51136C13.4673 6.52274 13.708 6.55286 13.9169 6.7216C14.1559 6.91478 14.2928 7.20715 14.2882 7.51448C14.2841 7.78288 14.1531 7.98715 14.0814 8.09102C14.0055 8.20088 13.9013 8.32588 13.7985 8.44928L7.84546 15.5928C7.656 15.8202 7.33933 15.8954 7.06786 15.7776C6.7964 15.6597 6.63509 15.377 6.6718 15.0833L7.2448 10.4994H3.1148C2.95414 10.4994 2.79142 10.4995 2.65846 10.4874C2.53272 10.476 2.29195 10.4459 2.08314 10.2771C1.84409 10.084 1.70714 9.79162 1.71178 9.48428C1.71583 9.21588 1.84684 9.01162 1.91858 8.90775C1.99445 8.79788 2.09865 8.67288 2.20153 8.54948C2.20663 8.54335 2.21172 8.53728 2.21681 8.53115L8.15453 1.40593C8.344 1.17858 8.66066 1.10334 8.93213 1.22118Z"/>
</g>
</svg>
