<svg width="20" height="21" viewBox="0 0 20 21" fill="none" xmlns="http://www.w3.org/2000/svg">
<path fill-rule="evenodd" clip-rule="evenodd" d="M8.13217 2.16666H11.8677C12.5385 2.16665 13.0921 2.16664 13.5431 2.20349C14.0115 2.24176 14.4421 2.32389 14.8466 2.52997C15.4738 2.84955 15.9837 3.35948 16.3033 3.98669C16.5094 4.39113 16.5915 4.82172 16.6298 5.29014C16.6666 5.74114 16.6666 6.29478 16.6666 6.96559V18C16.6666 18.297 16.5085 18.5716 16.2515 18.7207C15.9946 18.8699 15.6777 18.8709 15.4198 18.7235L9.99992 15.6264L4.58004 18.7235C4.32212 18.8709 4.00524 18.8699 3.74831 18.7207C3.49138 18.5716 3.33325 18.297 3.33325 18L3.33325 6.96557C3.33324 6.29477 3.33323 5.74113 3.37008 5.29014C3.40835 4.82172 3.49049 4.39113 3.69656 3.98669C4.01614 3.35948 4.52608 2.84955 5.15328 2.52997C5.55773 2.32389 5.98832 2.24176 6.45673 2.20349C6.90773 2.16664 7.46136 2.16665 8.13217 2.16666ZM6.59245 3.86462C6.2271 3.89447 6.04027 3.94857 5.90994 4.01498C5.59633 4.17477 5.34136 4.42974 5.18158 4.74334C5.11517 4.87367 5.06106 5.06051 5.03121 5.42586C5.00057 5.80093 4.99992 6.28617 4.99992 6.99999V16.564L9.58647 13.9431C9.84266 13.7967 10.1572 13.7967 10.4134 13.9431L14.9999 16.564V6.99999C14.9999 6.28617 14.9993 5.80093 14.9686 5.42586C14.9388 5.06051 14.8847 4.87367 14.8183 4.74334C14.6585 4.42974 14.4035 4.17477 14.0899 4.01498C13.9596 3.94857 13.7727 3.89447 13.4074 3.86462C13.0323 3.83397 12.5471 3.83332 11.8333 3.83332H8.16659C7.45277 3.83332 6.96753 3.83397 6.59245 3.86462ZM9.99992 5.49999C10.4602 5.49999 10.8333 5.87309 10.8333 6.33332V7.99999H12.4999C12.9602 7.99999 13.3333 8.37309 13.3333 8.83332C13.3333 9.29356 12.9602 9.66666 12.4999 9.66666H10.8333V11.3333C10.8333 11.7936 10.4602 12.1667 9.99992 12.1667C9.53968 12.1667 9.16659 11.7936 9.16659 11.3333V9.66666H7.49992C7.03968 9.66666 6.66659 9.29356 6.66659 8.83332C6.66659 8.37309 7.03968 7.99999 7.49992 7.99999H9.16659V6.33332C9.16659 5.87309 9.53968 5.49999 9.99992 5.49999Z" fill="#5C707B"/>
</svg>
