<svg width="20" height="21" viewBox="0 0 20 21" fill="none" xmlns="http://www.w3.org/2000/svg">
<path fill-rule="evenodd" clip-rule="evenodd" d="M11.8677 2.16675H8.13217C7.46137 2.16674 6.90773 2.16673 6.45674 2.20357C5.98832 2.24185 5.55773 2.32398 5.15329 2.53007C4.52608 2.84964 4.01614 3.35957 3.69657 3.98678C3.49049 4.39122 3.40835 4.82181 3.37008 5.29023C3.33324 5.74122 3.33324 6.29485 3.33325 6.96566V18.0001C3.33325 18.2972 3.49139 18.5717 3.74831 18.7208C4.00524 18.8699 4.32212 18.871 4.58004 18.7236L9.99992 15.6266L15.4198 18.7236C15.6778 18.871 15.9946 18.8699 16.2515 18.7208C16.5084 18.5717 16.6666 18.2972 16.6666 18.0001V6.96569C16.6666 6.29488 16.6666 5.74122 16.6298 5.29023C16.5915 4.82181 16.5093 4.39122 16.3033 3.98678C15.9837 3.35957 15.4738 2.84964 14.8466 2.53007C14.4421 2.32398 14.0115 2.24185 13.5431 2.20357C13.0921 2.16673 12.5385 2.16674 11.8677 2.16675ZM13.5058 7.75601C13.8313 7.43057 13.8313 6.90293 13.5058 6.57749C13.1804 6.25206 12.6528 6.25206 12.3273 6.57749L9.16659 9.73825L8.08918 8.66082C7.76374 8.33539 7.2361 8.33539 6.91066 8.66082C6.58523 8.98625 6.58523 9.51391 6.91066 9.83933L8.57734 11.506C8.90275 11.8314 9.43042 11.8314 9.75584 11.506L13.5058 7.75601Z" fill="#5C707B"/>
</svg>
