<svg width="16" height="16" viewBox="0 0 16 16" fill="none" xmlns="http://www.w3.org/2000/svg">
<g id="camera-02">
<g id="Icon">
<path d="M1.33301 5.1345C1.33301 4.13973 2.13943 3.33331 3.13419 3.33331C3.65105 3.33331 4.10992 3.00258 4.27336 2.51225L4.33301 2.33331C4.36113 2.24893 4.3752 2.20674 4.39024 2.16931C4.58237 1.6914 5.0326 1.36689 5.54675 1.33575C5.58702 1.33331 5.63149 1.33331 5.72043 1.33331H10.2789C10.3679 1.33331 10.4123 1.33331 10.4526 1.33575C10.9667 1.36689 11.417 1.6914 11.6091 2.16931C11.6242 2.20674 11.6382 2.24893 11.6663 2.33331L11.726 2.51225C11.8894 3.00258 12.3483 3.33331 12.8652 3.33331C13.8599 3.33331 14.6663 4.13973 14.6663 5.1345V10.8C14.6663 11.9201 14.6663 12.4801 14.4484 12.908C14.2566 13.2843 13.9506 13.5902 13.5743 13.782C13.1465 14 12.5864 14 11.4663 14H4.53301C3.4129 14 2.85285 14 2.42503 13.782C2.0487 13.5902 1.74274 13.2843 1.55099 12.908C1.33301 12.4801 1.33301 11.9201 1.33301 10.8V5.1345Z" stroke="currentColor" stroke-linecap="round" stroke-linejoin="round"/>
<path d="M7.99967 11C9.65653 11 10.9997 9.65683 10.9997 7.99998C10.9997 6.34313 9.65653 4.99998 7.99967 4.99998C6.34282 4.99998 4.99967 6.34313 4.99967 7.99998C4.99967 9.65683 6.34282 11 7.99967 11Z" stroke="currentColor" stroke-linecap="round" stroke-linejoin="round"/>
</g>
</g>
</svg>
