<svg width="16" height="16" viewBox="0 0 16 16" fill="none" xmlns="http://www.w3.org/2000/svg">
<g clip-path="url(#clip0_7648_1998)">
<path fill-rule="evenodd" clip-rule="evenodd" d="M8.00008 0.666504C3.94999 0.666504 0.666748 3.94975 0.666748 7.99984C0.666748 12.0499 3.94999 15.3332 8.00008 15.3332C12.0501 15.3332 15.3334 12.0499 15.3334 7.99984C15.3334 3.94975 12.0501 0.666504 8.00008 0.666504ZM11.4715 6.47124C11.7318 6.21089 11.7318 5.78878 11.4715 5.52843C11.2111 5.26808 10.789 5.26808 10.5287 5.52843L7.00008 9.05704L5.47149 7.52844C5.21113 7.2681 4.78903 7.2681 4.52867 7.52844C4.26833 7.78877 4.26833 8.2109 4.52867 8.47124L6.52867 10.4712C6.78901 10.7316 7.21115 10.7316 7.47148 10.4712L11.4715 6.47124Z" fill="white"/>
</g>
<defs>
<clipPath id="clip0_7648_1998">
<rect width="16" height="16" fill="white"/>
</clipPath>
</defs>
</svg>
