<svg width="16" height="16" viewBox="0 0 16 16" fill="none" xmlns="http://www.w3.org/2000/svg">
<g id="check-circle-broken" clip-path="url(#clip0_3516_34994)">
<path id="Icon" d="M14.6663 7.39016V8.00349C14.6655 9.44111 14.2 10.8399 13.3392 11.9914C12.4785 13.1428 11.2685 13.9851 9.88991 14.3928C8.5113 14.8004 7.03785 14.7514 5.68932 14.2532C4.3408 13.755 3.18944 12.8342 2.40698 11.6282C1.62452 10.4222 1.25287 8.99553 1.34746 7.56103C1.44205 6.12653 1.99781 4.76104 2.93186 3.66821C3.86591 2.57537 5.1282 1.81375 6.53047 1.49692C7.93274 1.1801 9.39985 1.32505 10.713 1.91016M14.6663 2.66634L7.99967 9.33967L5.99967 7.33967" stroke="currentColor" stroke-linecap="round" stroke-linejoin="round"/>
</g>
<defs>
<clipPath id="clip0_3516_34994">
<rect width="16" height="16" fill="white"/>
</clipPath>
</defs>
</svg>
