<svg width="20" height="20" viewBox="0 0 20 20" fill="currentColor" xmlns="http://www.w3.org/2000/svg">
<g id="x-close">
<path id="Vector" d="M15.5892 5.58665C15.9147 5.26121 15.9147 4.73358 15.5892 4.40814C15.2638 4.0827 14.7362 4.0827 14.4107 4.40814L9.99999 8.8189L5.58925 4.40814C5.26381 4.0827 4.73617 4.0827 4.41073 4.40814C4.0853 4.73358 4.0853 5.26121 4.41073 5.58665L8.82149 9.9974L4.41073 14.4081C4.0853 14.7336 4.0853 15.2612 4.41073 15.5866C4.73617 15.9121 5.26381 15.9121 5.58925 15.5866L9.99999 11.1759L14.4107 15.5866C14.7362 15.9121 15.2638 15.9121 15.5892 15.5866C15.9147 15.2612 15.9147 14.7336 15.5892 14.4081L11.1785 9.9974L15.5892 5.58665Z"/>
</g>
</svg>
