<svg width="20" height="21" viewBox="0 0 20 21" fill="none" xmlns="http://www.w3.org/2000/svg">
<path fill-rule="evenodd" clip-rule="evenodd" d="M14.2882 3.87597C13.7742 3.83397 13.1139 3.83332 12.1667 3.83332H6.25008C5.78985 3.83332 5.41675 3.46023 5.41675 2.99999C5.41675 2.53975 5.78985 2.16666 6.25008 2.16666L12.2024 2.16666C13.1056 2.16665 13.834 2.16664 14.4239 2.21484C15.0313 2.26446 15.5648 2.36931 16.0584 2.6208C16.8424 3.02027 17.4798 3.65769 17.8793 4.4417C18.1308 4.93527 18.2356 5.46876 18.2852 6.07614C18.3334 6.66603 18.3334 7.39448 18.3334 8.29763V14.25C18.3334 14.7102 17.9603 15.0833 17.5001 15.0833C17.0398 15.0833 16.6667 14.7102 16.6667 14.25V8.33332C16.6667 7.38615 16.6661 6.72589 16.6241 6.21186C16.5829 5.70755 16.5061 5.41781 16.3943 5.19835C16.1546 4.72794 15.7721 4.34549 15.3017 4.10581C15.0823 3.99399 14.7925 3.91717 14.2882 3.87597ZM5.13463 5.08332H11.9489C12.3882 5.08331 12.7671 5.08329 13.0793 5.1088C13.4087 5.13572 13.7364 5.19515 14.0517 5.35581C14.5221 5.59549 14.9046 5.97794 15.1443 6.44835C15.3049 6.76366 15.3644 7.09135 15.3913 7.4208C15.4168 7.73295 15.4168 8.11192 15.4167 8.55122V15.3654C15.4168 15.8047 15.4168 16.1837 15.3913 16.4958C15.3644 16.8253 15.3049 17.153 15.1443 17.4683C14.9046 17.9387 14.5221 18.3212 14.0517 18.5608C13.7364 18.7215 13.4087 18.7809 13.0793 18.8078C12.7671 18.8334 12.3882 18.8333 11.9489 18.8333H5.13461C4.69533 18.8333 4.31637 18.8334 4.00423 18.8078C3.67477 18.7809 3.34709 18.7215 3.03177 18.5608C2.56137 18.3212 2.17892 17.9387 1.93923 17.4683C1.77857 17.153 1.71914 16.8253 1.69222 16.4958C1.66672 16.1837 1.66673 15.8047 1.66675 15.3654V8.5512C1.66673 8.11191 1.66672 7.73294 1.69222 7.4208C1.71914 7.09135 1.77857 6.76366 1.93923 6.44835C2.17892 5.97794 2.56137 5.59549 3.03177 5.35581C3.34709 5.19515 3.67477 5.13572 4.00423 5.1088C4.31637 5.08329 4.69534 5.08331 5.13463 5.08332ZM4.13995 6.76993C3.91356 6.78843 3.82963 6.81982 3.78842 6.84082C3.63162 6.92071 3.50414 7.0482 3.42424 7.205C3.40325 7.2462 3.37185 7.33013 3.35336 7.55652C3.33406 7.79263 3.33342 8.10286 3.33342 8.58332V15.3333C3.33342 15.8138 3.33406 16.124 3.35336 16.3601C3.37185 16.5865 3.40325 16.6704 3.42424 16.7116C3.50414 16.8685 3.63162 16.9959 3.78842 17.0758C3.82963 17.0968 3.91356 17.1282 4.13995 17.1467C4.37606 17.166 4.68629 17.1667 5.16675 17.1667H11.9167C12.3972 17.1667 12.7074 17.166 12.9436 17.1467C13.1699 17.1282 13.2539 17.0968 13.2951 17.0758C13.4519 16.9959 13.5794 16.8685 13.6593 16.7116C13.6802 16.6704 13.7116 16.5865 13.7301 16.3601C13.7494 16.124 13.7501 15.8138 13.7501 15.3333V8.58332C13.7501 8.10286 13.7494 7.79263 13.7301 7.55652C13.7116 7.33013 13.6802 7.2462 13.6593 7.205C13.5794 7.0482 13.4519 6.92071 13.2951 6.84082C13.2539 6.81982 13.1699 6.78843 12.9436 6.76993C12.7074 6.75064 12.3972 6.74999 11.9167 6.74999H5.16675C4.68629 6.74999 4.37606 6.75064 4.13995 6.76993Z" fill="#5C707B"/>
</svg>
