<svg width="16" height="16" viewBox="0 0 16 16" fill="none" xmlns="http://www.w3.org/2000/svg">
<g id="copy-07" clip-path="url(#clip0_70_6009)">
<path id="Icon" d="M6.99992 1.33487C6.54989 1.34097 6.27972 1.36702 6.06126 1.47833C5.81038 1.60616 5.60641 1.81014 5.47858 2.06102C5.36727 2.27947 5.34121 2.54964 5.33512 2.99967M12.9999 1.33487C13.45 1.34097 13.7201 1.36702 13.9386 1.47833C14.1895 1.60616 14.3934 1.81014 14.5213 2.06102C14.6326 2.27947 14.6586 2.54964 14.6647 2.99967M14.6647 8.99967C14.6586 9.44971 14.6326 9.71987 14.5213 9.93833C14.3934 10.1892 14.1895 10.3932 13.9386 10.521C13.7201 10.6323 13.45 10.6584 12.9999 10.6645M14.6666 5.333V6.66634M9.33329 1.33301H10.6666M3.46659 14.6663H8.53325C9.27999 14.6663 9.65336 14.6663 9.93857 14.521C10.1895 14.3932 10.3934 14.1892 10.5213 13.9383C10.6666 13.6531 10.6666 13.2797 10.6666 12.533V7.46634C10.6666 6.7196 10.6666 6.34624 10.5213 6.06102C10.3934 5.81014 10.1895 5.60616 9.93857 5.47833C9.65336 5.33301 9.27999 5.33301 8.53325 5.33301H3.46659C2.71985 5.33301 2.34648 5.33301 2.06126 5.47833C1.81038 5.60616 1.60641 5.81014 1.47858 6.06102C1.33325 6.34624 1.33325 6.7196 1.33325 7.46634V12.533C1.33325 13.2797 1.33325 13.6531 1.47858 13.9383C1.60641 14.1892 1.81038 14.3932 2.06126 14.521C2.34648 14.6663 2.71985 14.6663 3.46659 14.6663Z" stroke="currentColor" stroke-width="1.5" stroke-linecap="round" stroke-linejoin="round"/>
</g>
<defs>
<clipPath id="clip0_70_6009">
<rect width="16" height="16" fill="white"/>
</clipPath>
</defs>
</svg>
