<svg width="16" height="16" viewBox="0 0 16 16" fill="none" xmlns="http://www.w3.org/2000/svg">
<g id="credit-card-upload">
<path id="Icon" d="M5.9987 10.6667L7.9987 8.66675M7.9987 8.66675L9.9987 10.6667M7.9987 8.66675V13.3334M14.6654 6.00008H1.33203M3.66536 12.0001H3.46536C2.71863 12.0001 2.34526 12.0001 2.06004 11.8548C1.80916 11.7269 1.60519 11.5229 1.47736 11.2721C1.33203 10.9869 1.33203 10.6135 1.33203 9.86675V4.80008C1.33203 4.05334 1.33203 3.67998 1.47736 3.39476C1.60519 3.14388 1.80916 2.9399 2.06004 2.81207C2.34526 2.66675 2.71863 2.66675 3.46537 2.66675H12.532C13.2788 2.66675 13.6521 2.66675 13.9374 2.81207C14.1882 2.9399 14.3922 3.14388 14.52 3.39476C14.6654 3.67998 14.6654 4.05335 14.6654 4.80008V9.86675C14.6654 10.6135 14.6654 10.9869 14.52 11.2721C14.3922 11.523 14.1882 11.7269 13.9374 11.8548C13.6521 12.0001 13.2788 12.0001 12.532 12.0001H12.332" stroke="currentColor" stroke-linecap="round" stroke-linejoin="round"/>
</g>
</svg>
