<svg width="20" height="20" viewBox="0 0 20 20" fill="none" xmlns="http://www.w3.org/2000/svg">
<g id="trash-03">
<path id="Icon (Stroke)" fill-rule="evenodd" clip-rule="evenodd" d="M6.66667 2.4974C6.66667 2.03716 7.03977 1.66406 7.50001 1.66406H12.5C12.9602 1.66406 13.3333 2.03716 13.3333 2.4974C13.3333 2.95763 12.9602 3.33073 12.5 3.33073H7.50001C7.03977 3.33073 6.66667 2.95763 6.66667 2.4974ZM4.16021 4.16406H2.50001C2.03977 4.16406 1.66667 4.53716 1.66667 4.9974C1.66667 5.45763 2.03977 5.83073 2.50001 5.83073H3.38704L3.92179 13.8519C3.96375 14.4815 3.99847 15.0024 4.06073 15.4265C4.12555 15.868 4.22838 16.2714 4.44258 16.6474C4.77603 17.2327 5.279 17.7033 5.8852 17.997C6.27461 18.1858 6.684 18.2615 7.12883 18.2968C7.55608 18.3307 8.0782 18.3307 8.70912 18.3307H11.2909C11.9218 18.3307 12.4439 18.3307 12.8712 18.2968C13.316 18.2615 13.7254 18.1858 14.1148 17.997C14.721 17.7033 15.224 17.2327 15.5574 16.6474C15.7716 16.2714 15.8745 15.868 15.9393 15.4265C16.0015 15.0024 16.0363 14.4814 16.0782 13.8518L16.613 5.83073H17.5C17.9602 5.83073 18.3333 5.45763 18.3333 4.9974C18.3333 4.53716 17.9602 4.16406 17.5 4.16406H15.8398C15.8349 4.16402 15.8301 4.16402 15.8252 4.16406H4.17479C4.16994 4.16402 4.16508 4.16402 4.16021 4.16406ZM14.9426 5.83073H5.05741L5.58256 13.708C5.62729 14.3789 5.65821 14.8335 5.70972 15.1843C5.75975 15.5251 5.82088 15.6998 5.89073 15.8224C6.05746 16.1151 6.30894 16.3503 6.61204 16.4972C6.73904 16.5588 6.91739 16.6081 7.26072 16.6354C7.61419 16.6635 8.06988 16.6641 8.74222 16.6641H11.2578C11.9301 16.6641 12.3858 16.6635 12.7393 16.6354C13.0826 16.6081 13.261 16.5588 13.388 16.4972C13.6911 16.3503 13.9426 16.1151 14.1093 15.8224C14.1791 15.6998 14.2403 15.5251 14.2903 15.1843C14.3418 14.8335 14.3727 14.3789 14.4174 13.708L14.9426 5.83073ZM8.33334 7.91406C8.79358 7.91406 9.16667 8.28716 9.16667 8.7474V12.9141C9.16667 13.3743 8.79358 13.7474 8.33334 13.7474C7.8731 13.7474 7.50001 13.3743 7.50001 12.9141V8.7474C7.50001 8.28716 7.8731 7.91406 8.33334 7.91406ZM11.6667 7.91406C12.1269 7.91406 12.5 8.28716 12.5 8.7474V12.9141C12.5 13.3743 12.1269 13.7474 11.6667 13.7474C11.2064 13.7474 10.8333 13.3743 10.8333 12.9141V8.7474C10.8333 8.28716 11.2064 7.91406 11.6667 7.91406Z" fill="#5C707B"/>
</g>
</svg>
