<svg width="16" height="16" viewBox="0 0 16 16" fill="none" xmlns="http://www.w3.org/2000/svg">
<path d="M8.00065 8.66675C8.36884 8.66675 8.66732 8.36827 8.66732 8.00008C8.66732 7.63189 8.36884 7.33341 8.00065 7.33341C7.63246 7.33341 7.33398 7.63189 7.33398 8.00008C7.33398 8.36827 7.63246 8.66675 8.00065 8.66675Z" fill="currentColor"/>
<path d="M8.00065 4.00008C8.36884 4.00008 8.66732 3.7016 8.66732 3.33341C8.66732 2.96522 8.36884 2.66675 8.00065 2.66675C7.63246 2.66675 7.33398 2.96522 7.33398 3.33341C7.33398 3.7016 7.63246 4.00008 8.00065 4.00008Z" fill="currentColor"/>
<path d="M8.00065 13.3334C8.36884 13.3334 8.66732 13.0349 8.66732 12.6667C8.66732 12.2986 8.36884 12.0001 8.00065 12.0001C7.63246 12.0001 7.33398 12.2986 7.33398 12.6667C7.33398 13.0349 7.63246 13.3334 8.00065 13.3334Z" fill="currentColor"/>
<path d="M8.00065 8.66675C8.36884 8.66675 8.66732 8.36827 8.66732 8.00008C8.66732 7.63189 8.36884 7.33341 8.00065 7.33341C7.63246 7.33341 7.33398 7.63189 7.33398 8.00008C7.33398 8.36827 7.63246 8.66675 8.00065 8.66675Z" stroke="currentColor" stroke-linecap="round" stroke-linejoin="round"/>
<path d="M8.00065 4.00008C8.36884 4.00008 8.66732 3.7016 8.66732 3.33341C8.66732 2.96522 8.36884 2.66675 8.00065 2.66675C7.63246 2.66675 7.33398 2.96522 7.33398 3.33341C7.33398 3.7016 7.63246 4.00008 8.00065 4.00008Z" stroke="currentColor" stroke-linecap="round" stroke-linejoin="round"/>
<path d="M8.00065 13.3334C8.36884 13.3334 8.66732 13.0349 8.66732 12.6667C8.66732 12.2986 8.36884 12.0001 8.00065 12.0001C7.63246 12.0001 7.33398 12.2986 7.33398 12.6667C7.33398 13.0349 7.63246 13.3334 8.00065 13.3334Z" stroke="currentColor" stroke-linecap="round" stroke-linejoin="round"/>
</svg>
