<svg width="16" height="16" viewBox="0 0 16 16" fill="none" xmlns="http://www.w3.org/2000/svg">
<g id="edit-02">
<path id="Icon" d="M11.9994 6.66671L9.3327 4.00004M1.66602 14.3334L3.92226 14.0827C4.19792 14.0521 4.33575 14.0367 4.46458 13.995C4.57888 13.958 4.68765 13.9058 4.78794 13.8396C4.90099 13.7651 4.99905 13.667 5.19517 13.4709L13.9994 4.66671C14.7357 3.93033 14.7357 2.73642 13.9994 2.00004C13.263 1.26366 12.0691 1.26366 11.3327 2.00004L2.5285 10.8042C2.33238 11.0003 2.23432 11.0984 2.15977 11.2114C2.09364 11.3117 2.04136 11.4205 2.00436 11.5348C1.96265 11.6636 1.94734 11.8015 1.91671 12.0771L1.66602 14.3334Z" stroke="currentColor" stroke-linecap="round" stroke-linejoin="round"/>
</g>
</svg>
