<svg width="16" height="16" viewBox="0 0 16 16" fill="none" xmlns="http://www.w3.org/2000/svg">
<g id="edit-05" clip-path="url(#clip0_1594_5386)">
<path id="Icon" d="M7.33301 2.66666H4.53301C3.4129 2.66666 2.85285 2.66666 2.42503 2.88464C2.0487 3.07639 1.74274 3.38235 1.55099 3.75867C1.33301 4.1865 1.33301 4.74655 1.33301 5.86666V11.4667C1.33301 12.5868 1.33301 13.1468 1.55099 13.5746C1.74274 13.951 2.0487 14.2569 2.42503 14.4487C2.85285 14.6667 3.4129 14.6667 4.53301 14.6667H10.133C11.2531 14.6667 11.8132 14.6667 12.241 14.4487C12.6173 14.2569 12.9233 13.951 13.115 13.5746C13.333 13.1468 13.333 12.5868 13.333 11.4667V8.66666M5.33299 10.6667H6.44935C6.77547 10.6667 6.93853 10.6667 7.09198 10.6298C7.22803 10.5972 7.35809 10.5433 7.47739 10.4702C7.61194 10.3877 7.72724 10.2724 7.95785 10.0418L14.333 3.66666C14.8853 3.11437 14.8853 2.21894 14.333 1.66666C13.7807 1.11437 12.8853 1.11437 12.333 1.66665L5.95783 8.04182C5.72723 8.27242 5.61193 8.38772 5.52947 8.52228C5.45637 8.64157 5.40249 8.77163 5.36983 8.90768C5.33299 9.06113 5.33299 9.22419 5.33299 9.55031V10.6667Z" stroke="currentColor" stroke-linecap="round" stroke-linejoin="round"/>
</g>
<defs>
<clipPath id="clip0_1594_5386">
<rect width="16" height="16" fill="white"/>
</clipPath>
</defs>
</svg>
