<svg width="24" height="24" viewBox="0 0 24 24" fill="none" xmlns="http://www.w3.org/2000/svg">
<mask id="mask0_2812_250029" style="mask-type:alpha" maskUnits="userSpaceOnUse" x="0" y="0" width="24" height="24">
<rect width="24" height="24" fill="#D9D9D9"/>
</mask>
<g mask="url(#mask0_2812_250029)">
<path d="M15.2941 20V17.1723H12.4706V15.2872H15.2941V12.4595H17.1765V15.2872H20V17.1723H17.1765V20H15.2941ZM4 17.1959V15.3108H10.6588C10.6118 15.6406 10.5922 15.9548 10.6 16.2533C10.6078 16.5518 10.6353 16.866 10.6824 17.1959H4ZM4 13.4256V11.5405H13.0824C12.7216 11.7919 12.3961 12.0746 12.1059 12.3888C11.8157 12.703 11.5608 13.0486 11.3412 13.4256H4ZM4 9.65538V7.77025H18.1176V9.65538H4ZM4 5.88513V4H18.1176V5.88513H4Z" fill="#4D5156"/>
</g>
</svg>
