<svg width="16" height="16" viewBox="0 0 16 16" fill="none" xmlns="http://www.w3.org/2000/svg">
<g id="file-04">
<path id="Icon" d="M9.33464 1.51362V4.26732C9.33464 4.64069 9.33464 4.82737 9.4073 4.96998C9.47121 5.09542 9.5732 5.19741 9.69864 5.26132C9.84125 5.33398 10.0279 5.33398 10.4013 5.33398H13.155M13.3346 6.65947V11.4673C13.3346 12.5874 13.3346 13.1475 13.1166 13.5753C12.9249 13.9516 12.6189 14.2576 12.2426 14.4493C11.8148 14.6673 11.2547 14.6673 10.1346 14.6673H5.86797C4.74786 14.6673 4.18781 14.6673 3.75999 14.4493C3.38366 14.2576 3.0777 13.9516 2.88596 13.5753C2.66797 13.1475 2.66797 12.5874 2.66797 11.4673V4.53398C2.66797 3.41388 2.66797 2.85383 2.88596 2.426C3.0777 2.04968 3.38366 1.74372 3.75999 1.55197C4.18781 1.33398 4.74786 1.33398 5.86797 1.33398H8.00915C8.49833 1.33398 8.74292 1.33398 8.9731 1.38924C9.17717 1.43824 9.37226 1.51905 9.5512 1.6287C9.75304 1.75239 9.92599 1.92534 10.2719 2.27124L12.3974 4.39673C12.7433 4.74263 12.9162 4.91558 13.0399 5.11741C13.1496 5.29636 13.2304 5.49145 13.2794 5.69552C13.3346 5.9257 13.3346 6.17029 13.3346 6.65947Z" stroke="white" stroke-opacity="0.6" stroke-linecap="round" stroke-linejoin="round"/>
</g>
</svg>
