<svg width="16" height="16" viewBox="0 0 16 16" fill="none" xmlns="http://www.w3.org/2000/svg">
<path d="M9.33366 1.513V4.26669C9.33366 4.64006 9.33366 4.82675 9.40632 4.96935C9.47024 5.0948 9.57222 5.19678 9.69766 5.2607C9.84027 5.33336 10.027 5.33336 10.4003 5.33336H13.154M9.33366 11.3333H5.33366M10.667 8.66665H5.33366M13.3337 6.6588V11.4666C13.3337 12.5868 13.3337 13.1468 13.1157 13.5746C12.9239 13.951 12.618 14.2569 12.2416 14.4487C11.8138 14.6666 11.2538 14.6666 10.1337 14.6666H5.86699C4.74689 14.6666 4.18683 14.6666 3.75901 14.4487C3.38269 14.2569 3.07673 13.951 2.88498 13.5746C2.66699 13.1468 2.66699 12.5868 2.66699 11.4666V4.53331C2.66699 3.41321 2.66699 2.85316 2.88498 2.42533C3.07673 2.04901 3.38269 1.74305 3.75901 1.5513C4.18683 1.33331 4.74689 1.33331 5.86699 1.33331H8.00818C8.49736 1.33331 8.74195 1.33331 8.97212 1.38857C9.17619 1.43757 9.37128 1.51838 9.55023 1.62803C9.75206 1.75172 9.92501 1.92467 10.2709 2.27057L12.3964 4.39605C12.7423 4.74196 12.9153 4.91491 13.0389 5.11674C13.1486 5.29569 13.2294 5.49078 13.2784 5.69485C13.3337 5.92502 13.3337 6.16962 13.3337 6.6588Z" stroke="white" stroke-linecap="round" stroke-linejoin="round"/>
</svg>
