<svg width="16" height="16" viewBox="0 0 16 16" fill="none" xmlns="http://www.w3.org/2000/svg">
<g id="file-plus-03">
<path id="Icon" d="M9.33464 1.51367V4.26737C9.33464 4.64073 9.33464 4.82742 9.4073 4.97003C9.47121 5.09547 9.5732 5.19745 9.69864 5.26137C9.84125 5.33403 10.0279 5.33403 10.4013 5.33403H13.155M8.0013 12.0007V8.00065M6.0013 10.0007H10.0013M9.33464 1.33398H5.86797C4.74786 1.33398 4.18781 1.33398 3.75999 1.55197C3.38366 1.74372 3.0777 2.04968 2.88596 2.426C2.66797 2.85383 2.66797 3.41388 2.66797 4.53398V11.4673C2.66797 12.5874 2.66797 13.1475 2.88596 13.5753C3.0777 13.9516 3.38366 14.2576 3.75999 14.4493C4.18781 14.6673 4.74786 14.6673 5.86797 14.6673H10.1346C11.2547 14.6673 11.8148 14.6673 12.2426 14.4493C12.6189 14.2576 12.9249 13.9516 13.1166 13.5753C13.3346 13.1475 13.3346 12.5874 13.3346 11.4673V5.33398L9.33464 1.33398Z" stroke="white" stroke-opacity="0.6" stroke-linecap="round" stroke-linejoin="round"/>
</g>
</svg>
