<svg width="24" height="24" viewBox="0 0 24 24" fill="none" xmlns="http://www.w3.org/2000/svg">
<path d="M11.9999 21.4286C9.79986 21.4286 7.85304 20.7605 6.15939 19.4245C4.46574 18.0884 3.36574 16.3818 2.85939 14.3047C2.78955 14.0428 2.84193 13.8029 3.01653 13.585C3.19113 13.3671 3.42685 13.2404 3.72367 13.2047C4.00304 13.1698 4.25621 13.2222 4.4832 13.3619C4.71018 13.5016 4.86732 13.7111 4.95463 13.9905C5.37367 15.5619 6.23796 16.8452 7.54748 17.8405C8.85701 18.8357 10.3411 19.3333 11.9999 19.3333C14.0427 19.3333 15.7758 18.6216 17.1992 17.1983C18.6226 15.7749 19.3339 14.0421 19.3332 12C19.3332 9.95712 18.6215 8.22401 17.1981 6.80065C15.7748 5.37728 14.042 4.66595 11.9999 4.66665C10.7951 4.66665 9.66891 4.94601 8.62129 5.50474C7.57367 6.06347 6.69193 6.83173 5.97605 7.80951H7.80939C8.10621 7.80951 8.3552 7.91008 8.55634 8.11122C8.75748 8.31236 8.8577 8.561 8.85701 8.85713C8.85701 9.15395 8.75643 9.40294 8.55529 9.60408C8.35415 9.80522 8.10551 9.90544 7.80939 9.90474H3.61891C3.32209 9.90474 3.0731 9.80417 2.87196 9.60303C2.67082 9.40189 2.57059 9.15325 2.57129 8.85713V4.66665C2.57129 4.36982 2.67186 4.12084 2.87301 3.9197C3.07415 3.71855 3.32278 3.61833 3.61891 3.61903C3.91574 3.61903 4.16472 3.7196 4.36586 3.92074C4.56701 4.12189 4.66723 4.37052 4.66653 4.66665V6.08093C5.55701 4.96347 6.64408 4.09919 7.92777 3.48808C9.21145 2.87697 10.5688 2.57141 11.9999 2.57141C13.3094 2.57141 14.5361 2.8204 15.6801 3.31836C16.8241 3.81633 17.8194 4.4882 18.6659 5.33398C19.5123 6.18116 20.1846 7.1764 20.6825 8.3197C21.1805 9.463 21.4291 10.6898 21.4284 12C21.4284 13.3095 21.1794 14.5363 20.6815 15.6803C20.1835 16.8243 19.5116 17.8195 18.6659 18.666C17.8187 19.5125 16.8234 20.1847 15.6801 20.6826C14.5368 21.1806 13.3101 21.4293 11.9999 21.4286ZM13.0475 11.5809L15.6665 14.2C15.8586 14.392 15.9546 14.6365 15.9546 14.9333C15.9546 15.2301 15.8586 15.4746 15.6665 15.6666C15.4745 15.8587 15.23 15.9547 14.9332 15.9547C14.6364 15.9547 14.3919 15.8587 14.1999 15.6666L11.2665 12.7333C11.1618 12.6286 11.0832 12.5109 11.0308 12.3803C10.9784 12.2497 10.9522 12.1142 10.9522 11.9738V7.80951C10.9522 7.51268 11.0528 7.2637 11.254 7.06255C11.4551 6.86141 11.7037 6.76119 11.9999 6.76189C12.2967 6.76189 12.5457 6.86246 12.7468 7.0636C12.948 7.26474 13.0482 7.51338 13.0475 7.80951V11.5809Z"/>
</svg>
