<svg width="24" height="24" viewBox="0 0 24 24" fill="none" xmlns="http://www.w3.org/2000/svg">
<path d="M11.057 16.7143H12.9427V11.0571H11.057V16.7143ZM11.9999 9.17141C12.267 9.17141 12.4911 9.0809 12.6721 8.89987C12.8531 8.71884 12.9433 8.49507 12.9427 8.22855C12.9427 7.96141 12.8522 7.73733 12.6712 7.5563C12.4901 7.37527 12.2664 7.28507 11.9999 7.2857C11.7327 7.2857 11.5086 7.37621 11.3276 7.55724C11.1466 7.73827 11.0564 7.96204 11.057 8.22855C11.057 8.4957 11.1475 8.71978 11.3285 8.90081C11.5096 9.08184 11.7333 9.17204 11.9999 9.17141ZM11.9999 21.4286C10.6956 21.4286 9.46986 21.1809 8.32272 20.6856C7.17557 20.1903 6.17772 19.5186 5.32915 18.6707C4.48057 17.8221 3.80895 16.8243 3.31426 15.6771C2.81957 14.53 2.57192 13.3043 2.57129 12C2.57129 10.6957 2.81895 9.46998 3.31426 8.32284C3.80957 7.1757 4.4812 6.17784 5.32915 5.32927C6.17772 4.4807 7.17557 3.80907 8.32272 3.31438C9.46986 2.8197 10.6956 2.57204 11.9999 2.57141C13.3041 2.57141 14.5299 2.81907 15.677 3.31438C16.8241 3.8097 17.822 4.48133 18.6706 5.32927C19.5191 6.17784 20.1911 7.1757 20.6864 8.32284C21.1817 9.46998 21.4291 10.6957 21.4284 12C21.4284 13.3043 21.1808 14.53 20.6855 15.6771C20.1901 16.8243 19.5185 17.8221 18.6706 18.6707C17.822 19.5193 16.8241 20.1912 15.677 20.6865C14.5299 21.1818 13.3041 21.4292 11.9999 21.4286Z" fill="#4D5156"/>
</svg>
