<svg width="36" height="36" viewBox="0 0 36 36" fill="none" xmlns="http://www.w3.org/2000/svg">
<mask id="mask0_2239_178369" style="mask-type:alpha" maskUnits="userSpaceOnUse" x="0" y="0" width="36" height="36">
<rect width="36" height="36" fill="#D9D9D9"/>
</mask>
<g mask="url(#mask0_2239_178369)">
<path d="M18 30C16.36 30 14.81 29.685 13.35 29.055C11.89 28.425 10.615 27.565 9.525 26.475C8.435 25.385 7.575 24.11 6.945 22.65C6.315 21.19 6 19.64 6 18C6 16.34 6.315 14.785 6.945 13.335C7.575 11.885 8.435 10.615 9.525 9.525C10.615 8.435 11.89 7.575 13.35 6.945C14.81 6.315 16.36 6 18 6C18.38 6 18.75 6.02 19.11 6.06C19.47 6.1 19.83 6.15 20.19 6.21V12.9C19.95 12.08 19.645 11.305 19.275 10.575C18.905 9.845 18.48 9.14 18 8.46C17.48 9.18 17.03 9.93 16.65 10.71C16.27 11.49 15.96 12.32 15.72 13.2H20.19V15.6H15.18C15.12 16 15.075 16.395 15.045 16.785C15.015 17.175 15 17.58 15 18C15 18.42 15.015 18.825 15.045 19.215C15.075 19.605 15.12 20 15.18 20.4H20.82C20.88 20 20.925 19.605 20.955 19.215C20.985 18.825 21 18.42 21 18C21 17.58 20.985 17.175 20.955 16.785C20.925 16.395 20.88 16 20.82 15.6H23.22C23.28 16 23.325 16.395 23.355 16.785C23.385 17.175 23.4 17.58 23.4 18C23.4 18.42 23.385 18.825 23.355 19.215C23.325 19.605 23.28 20 23.22 20.4H27.3C27.4 20 27.475 19.605 27.525 19.215C27.575 18.825 27.6 18.42 27.6 18C27.6 17.58 27.575 17.175 27.525 16.785C27.475 16.395 27.4 16 27.3 15.6H29.76C29.84 16 29.9 16.4 29.94 16.8C29.98 17.2 30 17.6 30 18C30 19.64 29.685 21.19 29.055 22.65C28.425 24.11 27.565 25.385 26.475 26.475C25.385 27.565 24.115 28.425 22.665 29.055C21.215 29.685 19.66 30 18 30ZM8.7 20.4H12.78C12.72 20 12.675 19.605 12.645 19.215C12.615 18.825 12.6 18.42 12.6 18C12.6 17.58 12.615 17.175 12.645 16.785C12.675 16.395 12.72 16 12.78 15.6H8.7C8.6 16 8.525 16.395 8.475 16.785C8.425 17.175 8.4 17.58 8.4 18C8.4 18.42 8.425 18.825 8.475 19.215C8.525 19.605 8.6 20 8.7 20.4ZM14.88 27.06C14.52 26.4 14.205 25.715 13.935 25.005C13.665 24.295 13.44 23.56 13.26 22.8H9.72C10.3 23.8 11.025 24.67 11.895 25.41C12.765 26.15 13.76 26.7 14.88 27.06ZM9.72 13.2H13.26C13.44 12.44 13.665 11.705 13.935 10.995C14.205 10.285 14.52 9.6 14.88 8.94C13.76 9.3 12.765 9.85 11.895 10.59C11.025 11.33 10.3 12.2 9.72 13.2ZM18 27.54C18.52 26.82 18.97 26.07 19.35 25.29C19.73 24.51 20.04 23.68 20.28 22.8H15.72C15.96 23.68 16.27 24.51 16.65 25.29C17.03 26.07 17.48 26.82 18 27.54ZM21.12 27.06C22.24 26.7 23.235 26.15 24.105 25.41C24.975 24.67 25.7 23.8 26.28 22.8H22.74C22.56 23.56 22.335 24.295 22.065 25.005C21.795 25.715 21.48 26.4 21.12 27.06ZM22.8 13.2V6H30V13.2H22.8Z" />
</g>
</svg>
