<svg width="16" height="17" viewBox="0 0 16 17" fill="none" xmlns="http://www.w3.org/2000/svg">
<path fill-rule="evenodd" clip-rule="evenodd" d="M6.66683 3.16927C4.45769 3.16927 2.66683 4.96013 2.66683 7.16927C2.66683 9.37841 4.45769 11.1693 6.66683 11.1693C8.87597 11.1693 10.6668 9.37841 10.6668 7.16927C10.6668 4.96013 8.87597 3.16927 6.66683 3.16927ZM1.3335 7.16927C1.3335 4.22375 3.72131 1.83594 6.66683 1.83594C9.61235 1.83594 12.0002 4.22375 12.0002 7.16927C12.0002 8.40173 11.5821 9.53655 10.8801 10.4397L14.4716 14.0312C14.7319 14.2916 14.7319 14.7137 14.4716 14.974C14.2112 15.2344 13.7891 15.2344 13.5288 14.974L9.93729 11.3825C9.03416 12.0845 7.89932 12.5026 6.66683 12.5026C3.72131 12.5026 1.3335 10.1148 1.3335 7.16927Z" fill="#5C707B"/>
</svg>
