<svg width="14" height="14" viewBox="0 0 14 14" fill="none" xmlns="http://www.w3.org/2000/svg">
<g clip-path="url(#clip0_6504_3617)">
<path fill-rule="evenodd" clip-rule="evenodd" d="M5.25016 7C5.25016 5.067 6.81717 3.5 8.75016 3.5H9.91683C11.8498 3.5 13.4168 5.067 13.4168 7C13.4168 8.933 11.8498 10.5 9.91683 10.5H9.62516C9.303 10.5 9.04183 10.2388 9.04183 9.91667C9.04183 9.5945 9.303 9.33333 9.62516 9.33333H9.91683C11.2055 9.33333 12.2502 8.28867 12.2502 7C12.2502 5.71134 11.2055 4.66667 9.91683 4.66667H8.75016C7.4615 4.66667 6.41683 5.71134 6.41683 7C6.41683 7.32217 6.15566 7.58333 5.8335 7.58333C5.51133 7.58333 5.25016 7.32217 5.25016 7ZM4.0835 4.66667C2.79483 4.66667 1.75016 5.71134 1.75016 7C1.75016 8.28867 2.79483 9.33333 4.0835 9.33333H5.25016C6.53883 9.33333 7.5835 8.28867 7.5835 7C7.5835 6.67783 7.84466 6.41667 8.16683 6.41667C8.489 6.41667 8.75016 6.67783 8.75016 7C8.75016 8.933 7.18316 10.5 5.25016 10.5H4.0835C2.1505 10.5 0.583496 8.933 0.583496 7C0.583496 5.067 2.1505 3.5 4.0835 3.5H4.37516C4.69733 3.5 4.9585 3.76117 4.9585 4.08333C4.9585 4.4055 4.69733 4.66667 4.37516 4.66667H4.0835Z" />
</g>
<defs>
<clipPath id="clip0_6504_3617">
<rect width="14" height="14" fill="white" transform="translate(0.000244141)"/>
</clipPath>
</defs>
</svg>
