<svg width="20" height="20" viewBox="0 0 20 20" fill="none" xmlns="http://www.w3.org/2000/svg">
<path d="M6.4656 1.66667H7.50002C7.96026 1.66667 8.33335 2.03977 8.33335 2.50001C8.33335 2.96025 7.96026 3.33334 7.50002 3.33334H6.50002C5.7862 3.33334 5.30096 3.33399 4.92589 3.36463C4.56054 3.39448 4.3737 3.44859 4.24337 3.515C3.92977 3.67478 3.6748 3.92976 3.51501 4.24336C3.4486 4.37369 3.3945 4.56052 3.36465 4.92587C3.334 5.30095 3.33335 5.78619 3.33335 6.50001V13.5C3.33335 14.2138 3.334 14.6991 3.36465 15.0742C3.3945 15.4395 3.4486 15.6263 3.51501 15.7567C3.6748 16.0703 3.92977 16.3253 4.24337 16.485C4.3737 16.5514 4.56054 16.6055 4.92589 16.6353C5.30096 16.666 5.7862 16.6667 6.50002 16.6667H7.50002C7.96026 16.6667 8.33335 17.0398 8.33335 17.5C8.33335 17.9603 7.96026 18.3333 7.50002 18.3333H6.46559C5.79479 18.3333 5.24115 18.3333 4.79017 18.2965C4.32175 18.2583 3.89116 18.1761 3.48672 17.97C2.85951 17.6504 2.34958 17.1405 2.03 16.5133C1.82392 16.1088 1.74179 15.6783 1.70351 15.2098C1.66667 14.7588 1.66668 14.2053 1.66669 13.5344V6.4656C1.66668 5.7948 1.66667 5.24114 1.70352 4.79016C1.74179 4.32174 1.82393 3.89115 2.03 3.48671C2.34958 2.8595 2.85951 2.34956 3.48672 2.02999C3.89117 1.82391 4.32175 1.74177 4.79017 1.7035C5.24116 1.66666 5.7948 1.66666 6.4656 1.66667Z" />
<path d="M12.7441 5.24408C13.0695 4.91864 13.5972 4.91864 13.9226 5.24408L18.0893 9.41075C18.4147 9.73617 18.4147 10.2638 18.0893 10.5892L13.9226 14.7559C13.5972 15.0813 13.0695 15.0813 12.7441 14.7559C12.4187 14.4305 12.4187 13.9028 12.7441 13.5774L15.4882 10.8333H7.50002C7.03979 10.8333 6.66669 10.4602 6.66669 10C6.66669 9.53975 7.03979 9.16667 7.50002 9.16667H15.4882L12.7441 6.42259C12.4187 6.09715 12.4187 5.56952 12.7441 5.24408Z"/>
</svg>
