<svg width="26" height="28" viewBox="0 0 26 28" fill="none" xmlns="http://www.w3.org/2000/svg">
<path d="M1.9223 27.4319C1.67254 27.4319 1.41386 27.3779 1.16409 27.2789C0.191802 26.8557 -0.263124 25.7214 0.156121 24.731L7.51521 7.4004C7.81849 6.68917 8.51426 6.23002 9.28139 6.23002H9.37059C10.4142 6.23002 11.2617 7.0673 11.2884 8.11164V13.3423C11.2884 13.4954 11.4936 13.5404 11.556 13.4054L17.4255 1.11636C17.7377 0.441143 18.4156 0 19.1649 0H19.263C20.3156 0 21.163 0.846275 21.1808 1.90862V6.86023C21.1808 7.02228 21.4038 7.05829 21.4573 6.91425L22.0371 5.35674C22.3761 4.33941 23.4733 3.79923 24.4723 4.15035C25.4803 4.49246 26.0155 5.59982 25.6676 6.60815L21.3325 19.4823C21.0292 20.3736 20.1372 20.9228 19.2184 20.7698C18.2996 20.6257 17.6128 19.8244 17.5949 18.8881V10.7855C17.5949 10.6325 17.3898 10.5874 17.3273 10.7225L11.4847 23.0025C11.11 23.8127 10.2269 24.2629 9.35275 24.0738C8.47858 23.8938 7.85418 23.1285 7.82741 22.2282V17.5197C7.82741 17.3666 7.61333 17.3216 7.55089 17.4657L3.68848 26.2525C3.37628 26.9908 2.67159 27.4319 1.9223 27.4319Z" fill="#163342"/>
</svg>
