<svg width="219" viewBox="0 0 219 64" xmlns="http://www.w3.org/2000/svg">
<path d="M53.4491 31.35L25.4491 61.35C25.2676 61.5553 25.0443 61.7195 24.7943 61.8316C24.5442 61.9437 24.2731 62.0011 23.9991 62C23.6776 61.9968 23.3611 61.9198 23.0741 61.775C22.6933 61.5695 22.3883 61.2475 22.2038 60.8561C22.0194 60.4647 21.9651 60.0245 22.0491 59.6L25.6991 41.275L11.2991 35.875C10.9914 35.7556 10.7171 35.5637 10.4995 35.3157C10.2819 35.0676 10.1274 34.7706 10.0491 34.45C9.97301 34.1283 9.97893 33.7926 10.0663 33.4737C10.1536 33.1549 10.3197 32.863 10.5491 32.625L38.5491 2.625C38.848 2.31871 39.2372 2.11636 39.6596 2.04769C40.082 1.97902 40.5153 2.04766 40.8958 2.2435C41.2763 2.43935 41.584 2.75209 41.7736 3.13575C41.9631 3.51942 42.0247 3.95378 41.9491 4.375L38.2991 22.725L52.6991 28.125C53.0082 28.2372 53.2845 28.4249 53.5027 28.671C53.7209 28.9171 53.8743 29.2137 53.9488 29.5341C54.0233 29.8544 54.0166 30.1883 53.9293 30.5054C53.8421 30.8226 53.677 31.1129 53.4491 31.35Z" fill="#0CA4A5"/>
<path d="M76 48.9987V16.4887H83.3337V20.6275C84.2586 18.9809 85.624 17.7348 87.4299 16.8892C89.2358 15.9991 91.0417 15.5541 92.8476 15.5541C94.9618 15.5541 96.8778 16.0436 98.5956 17.0227C100.313 17.9573 101.613 19.3814 102.494 21.2951C103.771 19.1589 105.291 17.668 107.052 16.8224C108.858 15.9769 110.818 15.5541 112.933 15.5541C114.386 15.5541 115.796 15.7988 117.161 16.2884C118.526 16.7779 119.738 17.5345 120.795 18.5581C121.852 19.5372 122.689 20.8055 123.305 22.3632C123.966 23.9208 124.296 25.7677 124.296 27.9039V48.9987H116.897V29.1722C116.897 27.2586 116.39 25.6787 115.377 24.4326C114.408 23.142 112.844 22.4967 110.686 22.4967C108.66 22.4967 107.03 23.2087 105.797 24.6328C104.608 26.0125 104.013 27.7036 104.013 29.7063V48.9987H96.4814V29.1722C96.4814 27.3031 95.9969 25.7232 95.0279 24.4326C94.0588 23.142 92.4732 22.4967 90.2709 22.4967C88.2007 22.4967 86.571 23.1865 85.3818 24.5661C84.1925 25.9012 83.5979 27.6146 83.5979 29.7063V48.9987H76Z"/>
<path d="M128.863 40.1869C128.863 38.7183 129.105 37.4277 129.59 36.3151C130.118 35.2025 130.801 34.2457 131.638 33.4446C132.519 32.599 133.554 31.9315 134.743 31.4419C135.932 30.9524 137.21 30.5964 138.575 30.3738L146.834 29.1055C147.759 28.972 148.375 28.7049 148.684 28.3044C149.036 27.8594 149.212 27.3476 149.212 26.769C149.212 25.3894 148.728 24.2323 147.759 23.2977C146.79 22.3186 145.248 21.8291 143.134 21.8291C141.108 21.8291 139.544 22.4077 138.443 23.5648C137.342 24.6773 136.703 26.057 136.527 27.7036L129.524 26.1015C129.656 24.7219 130.074 23.3867 130.779 22.0961C131.484 20.8055 132.409 19.6707 133.554 18.6916C134.699 17.7125 136.064 16.9337 137.65 16.3551C139.28 15.7766 141.086 15.4873 143.068 15.4873C145.534 15.4873 147.626 15.8211 149.344 16.4887C151.106 17.1562 152.516 18.0463 153.573 19.1589C154.674 20.2715 155.467 21.5621 155.951 23.0307C156.48 24.4993 156.744 26.0347 156.744 27.6369V43.7917C156.744 45.2603 156.788 46.462 156.876 47.3965C157.008 48.2866 157.096 48.8207 157.14 48.9987H150.005C149.961 48.9097 149.895 48.5314 149.807 47.8638C149.719 47.1518 149.675 46.1504 149.675 44.8598C148.926 46.1059 147.737 47.2853 146.107 48.3979C144.477 49.466 142.363 50 139.764 50C138.091 50 136.571 49.733 135.206 49.1989C133.884 48.6649 132.739 47.9528 131.77 47.0628C130.845 46.1282 130.118 45.0823 129.59 43.9252C129.105 42.7236 128.863 41.4775 128.863 40.1869ZM141.218 43.9252C142.275 43.9252 143.288 43.7917 144.257 43.5247C145.226 43.2132 146.063 42.7459 146.768 42.1228C147.516 41.4553 148.111 40.5875 148.551 39.5194C148.992 38.4513 149.212 37.1162 149.212 35.514V34.0454L140.821 35.3138C139.632 35.5363 138.619 36.0036 137.782 36.7156C136.945 37.3832 136.527 38.3845 136.527 39.7196C136.527 40.8322 136.923 41.8113 137.716 42.6569C138.509 43.5024 139.676 43.9252 141.218 43.9252Z"/>
<path d="M179.702 48.9987H172.038L158.956 16.4887H167.413L175.936 39.7196L184.261 16.4887H192.321L179.702 48.9987Z"/>
<path d="M195.758 48.9987V16.4887H203.356V48.9987H195.758ZM194.568 5.07343C194.568 3.64931 195.053 2.44771 196.022 1.46863C196.991 0.489542 198.158 0 199.524 0C200.933 0 202.122 0.489542 203.091 1.46863C204.06 2.44771 204.545 3.64931 204.545 5.07343C204.545 6.49755 204.06 7.69915 203.091 8.67824C202.122 9.61282 200.933 10.0801 199.524 10.0801C198.158 10.0801 196.991 9.61282 196.022 8.67824C195.053 7.69915 194.568 6.49755 194.568 5.07343Z"/>
<path d="M210.213 48.9987V16.4887H217.811V48.9987H210.213ZM209.024 5.07343C209.024 3.64931 209.508 2.44771 210.477 1.46863C211.446 0.489542 212.613 0 213.979 0C215.388 0 216.577 0.489542 217.546 1.46863C218.516 2.44771 219 3.64931 219 5.07343C219 6.49755 218.516 7.69915 217.546 8.67824C216.577 9.61282 215.388 10.0801 213.979 10.0801C212.613 10.0801 211.446 9.61282 210.477 8.67824C209.508 7.69915 209.024 6.49755 209.024 5.07343Z"/>
</svg>
