<svg width="356" height="134" viewBox="0 0 356 134" fill="none" xmlns="http://www.w3.org/2000/svg">
<path d="M193.071 54.785V100.688H180.091V96.1039C176.638 99.6929 171.904 101.774 166.397 101.774C153.953 101.774 144.545 91.4291 144.545 77.7366C144.545 64.044 153.953 53.6992 166.397 53.6992C171.904 53.6992 176.608 55.7802 180.091 59.3693V54.785H193.071ZM180.091 77.7366C180.091 71.2522 175.388 66.3965 168.987 66.3965C162.675 66.3965 157.972 71.2522 157.972 77.7366C157.972 84.2209 162.675 89.0767 168.987 89.0767C175.388 89.0767 180.091 84.2209 180.091 77.7366Z" fill="#0E1C24"/>
<path d="M246.272 54.7852L230.374 95.5009C228.856 99.301 225.224 101.774 221.205 101.774C217.186 101.774 213.554 99.301 212.035 95.531L196.078 54.7852H210.904L220.937 83.8592C221.086 84.2814 221.681 84.2814 221.83 83.8592L231.773 54.7852H246.272Z" fill="#0E1C24"/>
<path d="M247.879 40.8213C247.879 36.237 251.333 32.7988 255.888 32.7988C260.502 32.7988 263.985 36.2069 263.985 40.8213C263.985 45.4961 260.532 48.9343 255.888 48.9343C251.363 48.9343 247.879 45.5263 247.879 40.8213ZM249.398 54.7853H262.378V100.689H249.398V54.7853Z" fill="#0E1C24"/>
<path d="M268.094 40.8213C268.094 36.237 271.548 32.7988 276.103 32.7988C280.717 32.7988 284.2 36.2069 284.2 40.8213C284.2 45.4961 280.747 48.9343 276.103 48.9343C271.577 48.9343 268.094 45.5263 268.094 40.8213ZM269.613 54.7853H282.593V100.689H269.613V54.7853Z" fill="#0E1C24"/>
<path d="M114.595 62.9284L109.207 82.6831C109.058 83.226 108.284 83.1053 108.284 82.5624V66.3063C108.284 59.3394 102.717 53.7297 95.8696 53.7297H94.381C88.8139 53.7297 83.9314 57.4695 82.4131 62.8983L71.8147 100.749H84.4971L94.3512 66.2761C94.5001 65.7333 95.2741 65.8539 95.2741 66.3968V90.0421C95.2741 96.5264 100.454 101.804 106.885 101.804H107.897C113.077 101.804 117.632 98.3059 119.061 93.2692L126.504 66.5777C126.653 66.0349 127.427 66.1555 127.427 66.6984V100.749H140.407V66.3063C140.407 59.3394 134.84 53.7297 127.992 53.7297H126.563C120.966 53.6995 116.084 57.4695 114.595 62.9284Z" fill="#0E1C24"/>
</svg>
