<svg width="16" height="16" viewBox="0 0 16 16" fill="none" xmlns="http://www.w3.org/2000/svg">
<g id="microphone-01.1">
<path id="Vector" fill-rule="evenodd" clip-rule="evenodd" d="M8.00004 0.666992C6.52728 0.666992 5.33337 1.8609 5.33337 3.33366V8.00033C5.33337 9.47306 6.52728 10.667 8.00004 10.667C9.47277 10.667 10.6667 9.47306 10.6667 8.00033V3.33366C10.6667 1.8609 9.47277 0.666992 8.00004 0.666992Z" fill="currentColor"/>
<path id="Vector_2" d="M3.99996 6.66667C3.99996 6.29847 3.70148 6 3.33329 6C2.96511 6 2.66663 6.29847 2.66663 6.66667V8C2.66663 10.7202 4.70307 12.9647 7.33456 13.2922C7.33369 13.3058 7.33329 13.3195 7.33329 13.3333V14H5.33329C4.96511 14 4.66663 14.2985 4.66663 14.6667C4.66663 15.0349 4.96511 15.3333 5.33329 15.3333H10.6666C11.0348 15.3333 11.3333 15.0349 11.3333 14.6667C11.3333 14.2985 11.0348 14 10.6666 14H8.66663V13.3333C8.66663 13.3195 8.66623 13.3058 8.66536 13.2922C11.2968 12.9647 13.3333 10.7202 13.3333 8V6.66667C13.3333 6.29847 13.0348 6 12.6666 6C12.2984 6 12 6.29847 12 6.66667V8C12 10.2091 10.2091 12 7.99996 12C5.79082 12 3.99996 10.2091 3.99996 8V6.66667Z" fill="currentColor"/>
</g>
</svg>
