<svg width="30" height="30" viewBox="0 0 30 30" fill="none" xmlns="http://www.w3.org/2000/svg">
<mask id="mask0_4683_53418" style="mask-type:alpha" maskUnits="userSpaceOnUse" x="0" y="0" width="30" height="30">
<rect width="30" height="30" fill="#D9D9D9"/>
</mask>
<g mask="url(#mask0_4683_53418)">
<path d="M8.19444 23.75C7.65972 23.75 7.20181 23.5598 6.82069 23.1793C6.44023 22.7982 6.25 22.3403 6.25 21.8056V8.19444C6.25 7.65972 6.44023 7.20181 6.82069 6.82069C7.20181 6.44023 7.65972 6.25 8.19444 6.25H15V8.19444H8.19444V21.8056H21.8056V15H23.75V21.8056C23.75 22.3403 23.5598 22.7982 23.1793 23.1793C22.7982 23.5598 22.3403 23.75 21.8056 23.75H8.19444ZM12.7639 18.5972L11.4028 17.2361L20.4444 8.19444H16.9444V6.25H23.75V13.0556H21.8056V9.55556L12.7639 18.5972Z" fill="#6F7A86"/>
</g>
</svg>
