<svg width="16" height="16" viewBox="0 0 16 16" fill="none" xmlns="http://www.w3.org/2000/svg">
<g id="pin-01">
<path id="Icon" d="M7.99964 9.99992L7.99964 14.6666M5.33297 4.87201V6.29242C5.33297 6.4311 5.33297 6.50044 5.31936 6.56676C5.30728 6.6256 5.28731 6.68254 5.25998 6.73603C5.22918 6.79633 5.18586 6.85047 5.09923 6.95876L4.05271 8.26691C3.60888 8.82169 3.38697 9.09908 3.38672 9.33253C3.3865 9.53556 3.47881 9.72762 3.63748 9.85428C3.81994 9.99992 4.17517 9.99992 4.88564 9.99992H11.1136C11.8241 9.99992 12.1793 9.99992 12.3618 9.85428C12.5205 9.72762 12.6128 9.53556 12.6126 9.33253C12.6123 9.09908 12.3904 8.82169 11.9466 8.26691L10.9 6.95876C10.8134 6.85047 10.7701 6.79633 10.7393 6.73603C10.712 6.68254 10.692 6.6256 10.6799 6.56676C10.6663 6.50044 10.6663 6.4311 10.6663 6.29242V4.87201C10.6663 4.79526 10.6663 4.75688 10.6706 4.71904C10.6745 4.68542 10.6809 4.65214 10.6898 4.6195C10.6998 4.58275 10.7141 4.54712 10.7426 4.47586L11.4145 2.79607C11.6105 2.30601 11.7085 2.06098 11.6677 1.86428C11.6319 1.69227 11.5297 1.54132 11.3833 1.44425C11.2158 1.33325 10.9519 1.33325 10.4241 1.33325H5.57514C5.04733 1.33325 4.78342 1.33325 4.61597 1.44425C4.46954 1.54132 4.36734 1.69227 4.3316 1.86428C4.29073 2.06098 4.38874 2.30601 4.58476 2.79607L5.25668 4.47586C5.28518 4.54712 5.29943 4.58275 5.30946 4.6195C5.31837 4.65214 5.32478 4.68542 5.32863 4.71904C5.33297 4.75688 5.33297 4.79526 5.33297 4.87201Z" stroke="white" stroke-linecap="round" stroke-linejoin="round"/>
</g>
</svg>
