<svg width="16" height="16" viewBox="0 0 16 16" fill="none" xmlns="http://www.w3.org/2000/svg">
<g id="play-circle" clip-path="url(#clip0_3420_61217)">
<g id="Icon">
<path d="M6.33301 5.97705C6.33301 5.65886 6.33301 5.49977 6.3995 5.41095C6.45745 5.33355 6.54615 5.28512 6.64259 5.27823C6.75326 5.27033 6.88709 5.35636 7.15475 5.52842L10.3018 7.55153C10.5341 7.70084 10.6502 7.7755 10.6903 7.87042C10.7254 7.95337 10.7254 8.04696 10.6903 8.1299C10.6502 8.22483 10.5341 8.29948 10.3018 8.44879L7.15475 10.4719C6.88709 10.644 6.75326 10.73 6.64259 10.7221C6.54615 10.7152 6.45745 10.6668 6.3995 10.5894C6.33301 10.5006 6.33301 10.3415 6.33301 10.0233V5.97705Z" stroke="currentColor" fill="currentColor" stroke-linecap="round" stroke-linejoin="round"/>
</g>
</g>
<defs>
<clipPath id="clip0_3420_61217">
<rect width="16" height="16" fill="white"/>
</clipPath>
</defs>
</svg>
