<svg width="20" height="20" viewBox="0 0 20 20" fill="none" xmlns="http://www.w3.org/2000/svg">
<g clip-path="url(#clip0_6152_51162)">
<path fill-rule="evenodd" clip-rule="evenodd" d="M9.99967 0.833008C4.93707 0.833008 0.833008 4.93707 0.833008 9.99967C0.833008 15.0623 4.93707 19.1663 9.99967 19.1663C15.0623 19.1663 19.1663 15.0623 19.1663 9.99967C19.1663 4.93707 15.0623 0.833008 9.99967 0.833008ZM9.99967 5.83301C10.4599 5.83301 10.833 6.20611 10.833 6.66634V9.16634H13.333C13.7933 9.16634 14.1663 9.53942 14.1663 9.99967C14.1663 10.4599 13.7933 10.833 13.333 10.833H10.833V13.333C10.833 13.7933 10.4599 14.1663 9.99967 14.1663C9.53942 14.1663 9.16634 13.7933 9.16634 13.333V10.833H6.66634C6.20611 10.833 5.83301 10.4599 5.83301 9.99967C5.83301 9.53942 6.20611 9.16634 6.66634 9.16634H9.16634V6.66634C9.16634 6.20611 9.53942 5.83301 9.99967 5.83301Z" fill="white"/>
</g>
<defs>
<clipPath id="clip0_6152_51162">
<rect width="20" height="20" fill="white"/>
</clipPath>
</defs>
</svg>
