<svg width="16" height="17" viewBox="0 0 16 17" fill="none" xmlns="http://www.w3.org/2000/svg">
<path d="M13.1996 8.34331L6.41234 15.457C6.36835 15.5057 6.31421 15.5446 6.25362 15.5712C6.19298 15.5978 6.12728 15.6114 6.06085 15.6111C5.98293 15.6104 5.9062 15.5921 5.83663 15.5578C5.74434 15.5091 5.67039 15.4327 5.62567 15.3399C5.58098 15.2471 5.56781 15.1427 5.58818 15.042L6.47295 10.6968L2.98235 9.41629C2.90776 9.38798 2.84128 9.3425 2.78853 9.28367C2.73578 9.22484 2.69834 9.15442 2.67935 9.07839C2.66091 9.00211 2.66234 8.92251 2.68351 8.84689C2.70469 8.7713 2.74496 8.70208 2.80056 8.64564L9.58779 1.53196C9.66026 1.45933 9.75459 1.41134 9.857 1.39506C9.95939 1.37878 10.0644 1.39505 10.1567 1.44149C10.2489 1.48793 10.3235 1.56209 10.3694 1.65307C10.4154 1.74404 10.4303 1.84704 10.412 1.94692L9.5272 6.29813L13.0178 7.57859C13.0927 7.6052 13.1597 7.6497 13.2126 7.70806C13.2655 7.76642 13.3027 7.83675 13.3207 7.91272C13.3388 7.98867 13.3372 8.06785 13.316 8.14306C13.2949 8.21825 13.2548 8.28709 13.1996 8.34331Z" fill="#4D5156"/>
</svg>
