<svg width="18" height="18" viewBox="0 0 18 18" fill="none" xmlns="http://www.w3.org/2000/svg">
<path d="M16.5946 9.49563C16.75 9.18138 16.75 8.81268 16.5946 8.49843C16.4578 8.22168 16.2177 8.07662 16.0933 8.00658C15.9594 7.93127 15.7878 7.85402 15.6167 7.77707L3.02887 2.11259C2.8538 2.03377 2.67926 1.95519 2.53202 1.90419C2.39685 1.85737 2.1247 1.77182 1.82337 1.85566C1.48286 1.95041 1.20667 2.19968 1.07762 2.52872C0.963422 2.8199 1.02071 3.09937 1.05347 3.23862C1.08916 3.39031 1.1495 3.572 1.21001 3.75422L2.42837 7.42497C2.52647 7.72053 2.57552 7.86828 2.66673 7.97755C2.74727 8.07408 2.85078 8.14878 2.96773 8.19483C3.10016 8.24695 3.25587 8.24695 3.56728 8.24695H9.00005C9.41427 8.24695 9.75005 8.58273 9.75005 8.99695C9.75005 9.41118 9.41427 9.74695 9.00005 9.74695H3.58146C3.27084 9.74695 3.11552 9.74695 2.98333 9.79885C2.86658 9.84475 2.76321 9.91915 2.68266 10.0153C2.59145 10.1242 2.54214 10.2714 2.44353 10.566L1.21537 14.2347C1.15419 14.4174 1.09326 14.5992 1.05711 14.7511C1.02397 14.8903 0.965724 15.1703 1.07961 15.4622C1.20822 15.7919 1.48444 16.0418 1.82527 16.137C2.12709 16.2212 2.39986 16.1353 2.53508 16.0884C2.6826 16.0374 2.85757 15.9586 3.03322 15.8795L15.6167 10.217C15.7878 10.14 15.9594 10.0628 16.0934 9.9874C16.2177 9.91743 16.4578 9.7723 16.5946 9.49563Z" fill="white"/>
</svg>
