<svg width="24" height="24" viewBox="0 0 24 24" fill="none" xmlns="http://www.w3.org/2000/svg">
<path d="M11.6667 6V18M7.5 8.57143H9.16667M7.5 11.1429H9.16667M7.5 13.7143H9.16667M7.66667 18H17.3333C18.2667 18 18.7335 18 19.09 17.8131C19.4036 17.6488 19.6586 17.3865 19.8183 17.064C20 16.6973 20 16.2172 20 15.2571V8.74286C20 7.78277 20 7.30272 19.8183 6.93602C19.6586 6.61345 19.4036 6.3512 19.09 6.18685C18.7335 6 18.2667 6 17.3333 6H7.66667C6.73325 6 6.26653 6 5.91002 6.18685C5.59641 6.3512 5.34144 6.61345 5.18166 6.93602C5 7.30272 5 7.78276 5 8.74286V15.2571C5 16.2172 5 16.6973 5.18166 17.064C5.34144 17.3865 5.59641 17.6488 5.91002 17.8131C6.26653 18 6.73324 18 7.66667 18Z" stroke="currentColor" stroke-width="1.5" stroke-linecap="round" stroke-linejoin="round"/>
</svg>
