<svg width="16" height="16" viewBox="0 0 16 16" fill="none" xmlns="http://www.w3.org/2000/svg">
<g id="stop-square01.1">
<g id="Icon">
<path d="M2 5.2C2 4.0799 2 3.51984 2.21799 3.09202C2.40973 2.71569 2.71569 2.40973 3.09202 2.21799C3.51984 2 4.0799 2 5.2 2H10.8C11.9201 2 12.4802 2 12.908 2.21799C13.2843 2.40973 13.5903 2.71569 13.782 3.09202C14 3.51984 14 4.0799 14 5.2V10.8C14 11.9201 14 12.4802 13.782 12.908C13.5903 13.2843 13.2843 13.5903 12.908 13.782C12.4802 14 11.9201 14 10.8 14H5.2C4.0799 14 3.51984 14 3.09202 13.782C2.71569 13.5903 2.40973 13.2843 2.21799 12.908C2 12.4802 2 11.9201 2 10.8V5.2Z" fill="none" stroke="currentColor" stroke-linecap="round" stroke-linejoin="round"/>
<path d="M5.33333 6.4C5.33333 6.02663 5.33333 5.83995 5.406 5.69734C5.46991 5.5719 5.5719 5.46991 5.69734 5.406C5.83995 5.33333 6.02663 5.33333 6.4 5.33333H9.6C9.97337 5.33333 10.1601 5.33333 10.3027 5.406C10.4281 5.46991 10.5301 5.5719 10.594 5.69734C10.6667 5.83995 10.6667 6.02663 10.6667 6.4V9.6C10.6667 9.97337 10.6667 10.1601 10.594 10.3027C10.5301 10.4281 10.4281 10.5301 10.3027 10.594C10.1601 10.6667 9.97337 10.6667 9.6 10.6667H6.4C6.02663 10.6667 5.83995 10.6667 5.69734 10.594C5.5719 10.5301 5.46991 10.4281 5.406 10.3027C5.33333 10.1601 5.33333 9.97337 5.33333 9.6V6.4Z" stroke-linecap="round" stroke-linejoin="round"/>
</g>
<rect id="Rectangle 16" x="5" y="5" width="6" height="6" rx="1" fill="currentColor"/>
</g>
</svg>
