<svg width="16" height="16" viewBox="0 0 16 16" fill="none" xmlns="http://www.w3.org/2000/svg">
<g id="stop-circle" clip-path="url(#clip0_3420_34063)">
<g id="Icon">
<path d="M8.00016 14.6668C11.6821 14.6668 14.6668 11.6821 14.6668 8.00016C14.6668 4.31826 11.6821 1.3335 8.00016 1.3335C4.31826 1.3335 1.3335 4.31826 1.3335 8.00016C1.3335 11.6821 4.31826 14.6668 8.00016 14.6668Z" stroke="currentColor" stroke-linecap="round" stroke-linejoin="round"/>
<path d="M5.3335 6.40016C5.3335 6.02679 5.3335 5.84011 5.40616 5.6975C5.47007 5.57206 5.57206 5.47007 5.6975 5.40616C5.84011 5.3335 6.02679 5.3335 6.40016 5.3335H9.60016C9.97353 5.3335 10.1602 5.3335 10.3028 5.40616C10.4283 5.47007 10.5303 5.57206 10.5942 5.6975C10.6668 5.84011 10.6668 6.02679 10.6668 6.40016V9.60016C10.6668 9.97353 10.6668 10.1602 10.5942 10.3028C10.5303 10.4283 10.4283 10.5303 10.3028 10.5942C10.1602 10.6668 9.97353 10.6668 9.60016 10.6668H6.40016C6.02679 10.6668 5.84011 10.6668 5.6975 10.5942C5.57206 10.5303 5.47007 10.4283 5.40616 10.3028C5.3335 10.1602 5.3335 9.97353 5.3335 9.60016V6.40016Z" stroke="currentColor" stroke-linecap="round" stroke-linejoin="round"/>
</g>
</g>
<defs>
<clipPath id="clip0_3420_34063">
<rect width="16" height="16" fill="white"/>
</clipPath>
</defs>
</svg>
