<svg width="12" height="16" viewBox="0 0 12 16" fill="none" xmlns="http://www.w3.org/2000/svg">
<path id="Icon" d="M7.33268 1.5127V4.26639C7.33268 4.63976 7.33268 4.82644 7.40534 4.96905C7.46926 5.09449 7.57125 5.19648 7.69669 5.26039C7.8393 5.33306 8.02598 5.33306 8.39935 5.33306H11.153M7.33268 11.333H3.33268M8.66602 8.66634H3.33268M11.3327 6.65849V11.4663C11.3327 12.5864 11.3327 13.1465 11.1147 13.5743C10.9229 13.9506 10.617 14.2566 10.2407 14.4484C9.81284 14.6663 9.25279 14.6663 8.13268 14.6663H3.86602C2.74591 14.6663 2.18586 14.6663 1.75803 14.4484C1.38171 14.2566 1.07575 13.9506 0.884003 13.5743C0.666016 13.1465 0.666016 12.5864 0.666016 11.4663V4.53301C0.666016 3.4129 0.666016 2.85285 0.884003 2.42503C1.07575 2.0487 1.38171 1.74274 1.75803 1.55099C2.18586 1.33301 2.74591 1.33301 3.86602 1.33301H6.0072C6.49638 1.33301 6.74097 1.33301 6.97115 1.38827C7.17522 1.43726 7.37031 1.51807 7.54925 1.62773C7.75108 1.75141 7.92404 1.92436 8.26994 2.27027L10.3954 4.39575C10.7413 4.74165 10.9143 4.9146 11.038 5.11644C11.1476 5.29538 11.2284 5.49047 11.2774 5.69454C11.3327 5.92472 11.3327 6.16931 11.3327 6.65849Z" stroke="white" stroke-opacity="0.6" stroke-linecap="round" stroke-linejoin="round"/>
</svg>
