<svg width="52" height="52" viewBox="0 0 52 52" fill="none" xmlns="http://www.w3.org/2000/svg">
<rect x="0.25" y="0.25" width="51.5" height="51.5" rx="11.75" fill="#F1F3F7"/>
<path fill-rule="evenodd" clip-rule="evenodd" d="M12.6467 6.58791C12.8351 6.67556 12.947 6.88584 12.9215 7.10427L12.5239 10.5138L15.3898 10.5138C15.5013 10.5138 15.6142 10.5138 15.7065 10.5227C15.7938 10.5312 15.9608 10.5536 16.1057 10.6791C16.2716 10.8228 16.3666 11.0403 16.3634 11.2689C16.3606 11.4685 16.2697 11.6204 16.2199 11.6977C16.1673 11.7794 16.095 11.8724 16.0236 11.9642L11.8926 17.2775C11.7612 17.4466 11.5414 17.5026 11.353 17.4149C11.1647 17.3273 11.0527 17.117 11.0782 16.8986L11.4758 13.489H8.6099C8.49842 13.489 8.3855 13.4891 8.29324 13.4801C8.20598 13.4716 8.0389 13.4492 7.894 13.3237C7.72812 13.1801 7.63309 12.9626 7.63631 12.734C7.63912 12.5343 7.73003 12.3824 7.77981 12.3052C7.83246 12.2234 7.90477 12.1305 7.97616 12.0387C7.9797 12.0341 7.98323 12.0296 7.98676 12.025L12.1071 6.72532C12.2386 6.55622 12.4583 6.50026 12.6467 6.58791Z" fill="#95A1BF"/>
<path fill-rule="evenodd" clip-rule="evenodd" d="M8 24C8 23.4477 8.44772 23 9 23L43 23C43.5523 23 44 23.4477 44 24L44 27C44 27.5523 43.5523 28 43 28L9 28C8.44772 28 8 27.5523 8 27L8 24Z" fill="#ADB6CE"/>
<path fill-rule="evenodd" clip-rule="evenodd" d="M8.31984 31.33C8.31984 30.7777 8.76755 30.33 9.31983 30.33L17.6665 30.33C18.2188 30.33 18.6665 30.7777 18.6665 31.33L18.6665 40C18.6665 40.5523 18.2188 41 17.6665 41L9.31983 41C8.76755 41 8.31983 40.5523 8.31983 40L8.31984 31.33Z" fill="#ADB6CE"/>
<path fill-rule="evenodd" clip-rule="evenodd" d="M20.9868 31.33C20.9868 30.7777 21.4345 30.33 21.9868 30.33L30.3335 30.33C30.8858 30.33 31.3335 30.7777 31.3335 31.33L31.3335 40C31.3335 40.5523 30.8858 41 30.3335 41L21.9868 41C21.4345 41 20.9868 40.5523 20.9868 40L20.9868 31.33Z" fill="#ADB6CE"/>
<path fill-rule="evenodd" clip-rule="evenodd" d="M33.6533 31.33C33.6533 30.7777 34.101 30.33 34.6533 30.33L43 30.33C43.5523 30.33 44 30.7777 44 31.33L44 40C44 40.5523 43.5523 41 43 41L34.6533 41C34.101 41 33.6533 40.5523 33.6533 40L33.6533 31.33Z" fill="#ADB6CE"/>
<rect x="0.25" y="0.25" width="51.5" height="51.5" rx="11.75" stroke="#E3E6EE" stroke-width="0.5"/>
</svg>
