<svg width="24" height="24" viewBox="0 0 24 24" fill="none" xmlns="http://www.w3.org/2000/svg">
<mask id="mask0_2812_250028" style="mask-type:alpha" maskUnits="userSpaceOnUse" x="0" y="0" width="24" height="24">
<rect width="24" height="24" fill="#D9D9D9"/>
</mask>
<g mask="url(#mask0_2812_250028)">
<path d="M11.9927 20L15.8858 10.4H17.6825L21.5756 20H19.7788L18.8804 17.56H14.7307L13.7895 20H11.9927ZM15.244 16.16H18.3243L16.8269 12.2H16.7414L15.244 16.16ZM5.23335 17.6L4.03549 16.48L8.35634 12.44C7.81445 11.88 7.3403 11.3 6.93388 10.7C6.52747 10.1 6.17453 9.46667 5.87506 8.8H7.67185C7.92854 9.28 8.20305 9.71333 8.49538 10.1C8.78772 10.4867 9.14066 10.8933 9.5542 11.32C10.1817 10.68 10.7022 10.0233 11.1157 9.35C11.5292 8.67667 11.8786 7.96 12.1638 7.2H2.6665V5.6H8.65581V4H10.367V5.6H16.3563V7.2H13.8751C13.5756 8.14667 13.1692 9.06667 12.6558 9.96C12.1424 10.8533 11.5079 11.6933 10.7521 12.48L12.8055 14.44L12.1638 16.08L9.51142 13.6L5.23335 17.6Z" fill="#4D5156"/>
</g>
</svg>
