<svg width="16" height="16" viewBox="0 0 16 16" fill="none" xmlns="http://www.w3.org/2000/svg">
<g id="users-02">
<path id="Icon" d="M10.6673 2.31184C11.6551 2.80274 12.334 3.82209 12.334 5C12.334 6.17791 11.6551 7.19726 10.6673 7.68816M12.0007 11.1776C13.0083 11.6336 13.9157 12.3767 14.6673 13.3333M1.33398 13.3333C2.63164 11.6817 4.39344 10.6667 6.33398 10.6667C8.27453 10.6667 10.0363 11.6817 11.334 13.3333M9.33398 5C9.33398 6.65685 7.99084 8 6.33398 8C4.67713 8 3.33398 6.65685 3.33398 5C3.33398 3.34315 4.67713 2 6.33398 2C7.99084 2 9.33398 3.34315 9.33398 5Z" stroke="currentColor" stroke-linecap="round" stroke-linejoin="round"/>
</g>
</svg>
