<svg width="20" height="21" viewBox="0 0 20 21" fill="none" xmlns="http://www.w3.org/2000/svg">
<mask id="mask0_4934_287130" style="mask-type:alpha" maskUnits="userSpaceOnUse" x="0" y="0" width="20" height="21">
<rect y="0.5" width="20" height="20" fill="#D9D9D9"/>
</mask>
<g mask="url(#mask0_4934_287130)">
<path d="M12.7917 17.4168C12.5139 17.5279 12.2569 17.4932 12.0208 17.3126C11.7847 17.132 11.6667 16.882 11.6667 16.5626C11.6667 16.4098 11.7119 16.2745 11.8025 16.1568C11.8925 16.0384 12.0069 15.9515 12.1458 15.8959C13.2569 15.4515 14.1494 14.7432 14.8233 13.7709C15.4967 12.7987 15.8333 11.7015 15.8333 10.4793C15.8333 9.25704 15.4967 8.15982 14.8233 7.1876C14.1494 6.21537 13.2569 5.50704 12.1458 5.0626C11.9931 5.00704 11.875 4.91676 11.7917 4.79176C11.7083 4.66676 11.6667 4.52787 11.6667 4.3751C11.6667 4.06954 11.7847 3.82649 12.0208 3.64593C12.2569 3.46537 12.5139 3.43065 12.7917 3.54176C14.2083 4.11121 15.3472 5.02093 16.2083 6.27093C17.0694 7.52093 17.5 8.92371 17.5 10.4793C17.5 12.0348 17.0694 13.4376 16.2083 14.6876C15.3472 15.9376 14.2083 16.8473 12.7917 17.4168ZM3.33333 13.0001C3.09722 13.0001 2.89944 12.9201 2.74 12.7601C2.58 12.6007 2.5 12.4029 2.5 12.1668V8.83343C2.5 8.59732 2.58 8.39926 2.74 8.23926C2.89944 8.07982 3.09722 8.0001 3.33333 8.0001H5.83333L8.58333 5.2501C8.84722 4.98621 9.14917 4.92704 9.48917 5.0726C9.82972 5.21871 10 5.47926 10 5.85426V15.1459C10 15.5209 9.82972 15.7812 9.48917 15.9268C9.14917 16.0729 8.84722 16.014 8.58333 15.7501L5.83333 13.0001H3.33333ZM11.6667 13.8334V7.1251C12.2917 7.41676 12.795 7.86815 13.1767 8.47926C13.5589 9.09037 13.75 9.76399 13.75 10.5001C13.75 11.2362 13.5589 11.9029 13.1767 12.5001C12.795 13.0973 12.2917 13.5418 11.6667 13.8334Z" fill="#5076FF"/>
</g>
</svg>
