<svg width="16" height="14" viewBox="0 0 16 14" fill="none" xmlns="http://www.w3.org/2000/svg">
<path id="Icon" d="M8.00049 5.00015V7.66682M8.00049 10.3335H8.00715M7.07737 1.59464L1.59411 11.0657C1.28997 11.591 1.1379 11.8537 1.16038 12.0693C1.17998 12.2573 1.2785 12.4282 1.4314 12.5394C1.60671 12.6668 1.91022 12.6668 2.51723 12.6668H13.4837C14.0908 12.6668 14.3943 12.6668 14.5696 12.5394C14.7225 12.4282 14.821 12.2573 14.8406 12.0693C14.8631 11.8537 14.711 11.591 14.4069 11.0657L8.92361 1.59463C8.62056 1.07119 8.46904 0.809471 8.27135 0.721569C8.09892 0.644894 7.90206 0.644894 7.72962 0.721569C7.53194 0.809471 7.38041 1.07119 7.07737 1.59464Z" stroke="#FDB022" stroke-linecap="round" stroke-linejoin="round"/>
</svg>
