<svg width="16" height="16" viewBox="0 0 16 16" fill="none" xmlns="http://www.w3.org/2000/svg">
<g id="user-square" clip-path="url(#clip0_2454_46639)">
<path id="Icon" d="M2.66733 14.545C3.06905 14.6667 3.61165 14.6667 4.53398 14.6667H11.4673C12.3897 14.6667 12.9323 14.6667 13.334 14.545M2.66733 14.545C2.5812 14.5189 2.50154 14.4872 2.426 14.4487C2.04968 14.257 1.74372 13.951 1.55197 13.5747C1.33398 13.1469 1.33398 12.5868 1.33398 11.4667V4.53337C1.33398 3.41327 1.33398 2.85322 1.55197 2.42539C1.74372 2.04907 2.04968 1.74311 2.426 1.55136C2.85383 1.33337 3.41388 1.33337 4.53398 1.33337H11.4673C12.5874 1.33337 13.1475 1.33337 13.5753 1.55136C13.9516 1.74311 14.2576 2.04907 14.4493 2.42539C14.6673 2.85322 14.6673 3.41327 14.6673 4.53337V11.4667C14.6673 12.5868 14.6673 13.1469 14.4493 13.5747C14.2576 13.951 13.9516 14.257 13.5753 14.4487C13.4998 14.4872 13.4201 14.5189 13.334 14.545M2.66733 14.545C2.66755 14.0054 2.67079 13.7199 2.71856 13.4798C2.92897 12.422 3.7559 11.595 4.81374 11.3846C5.07134 11.3334 5.38111 11.3334 6.00065 11.3334H10.0007C10.6202 11.3334 10.93 11.3334 11.1876 11.3846C12.2454 11.595 13.0723 12.422 13.2827 13.4798C13.3305 13.7199 13.3337 14.0054 13.334 14.545M10.6673 6.33337C10.6673 7.80613 9.47341 9.00004 8.00065 9.00004C6.52789 9.00004 5.33398 7.80613 5.33398 6.33337C5.33398 4.86061 6.52789 3.66671 8.00065 3.66671C9.47341 3.66671 10.6673 4.86061 10.6673 6.33337Z" stroke="white" stroke-opacity="0.6" stroke-linecap="round" stroke-linejoin="round"/>
</g>
<defs>
<clipPath id="clip0_2454_46639">
<rect width="16" height="16" fill="white"/>
</clipPath>
</defs>
</svg>
