<svg width="16" height="16" viewBox="0 0 16 16" fill="none" xmlns="http://www.w3.org/2000/svg">
<g id="file-download-02">
<path id="Icon" d="M13.3327 8.33337V4.53337C13.3327 3.41327 13.3327 2.85322 13.1147 2.42539C12.9229 2.04907 12.617 1.74311 12.2407 1.55136C11.8128 1.33337 11.2528 1.33337 10.1327 1.33337H5.86602C4.74591 1.33337 4.18586 1.33337 3.75803 1.55136C3.38171 1.74311 3.07575 2.04907 2.884 2.42539C2.66602 2.85322 2.66602 3.41327 2.66602 4.53337V11.4667C2.66602 12.5868 2.66602 13.1469 2.884 13.5747C3.07575 13.951 3.38171 14.257 3.75803 14.4487C4.18586 14.6667 4.74588 14.6667 5.86592 14.6667H8.33268M9.33268 7.33337H5.33268M6.66602 10H5.33268M10.666 4.66671H5.33268M9.99935 12.6667L11.9993 14.6667M11.9993 14.6667L13.9993 12.6667M11.9993 14.6667V10.6667" stroke="white" stroke-opacity="0.6" stroke-linecap="round" stroke-linejoin="round"/>
</g>
</svg>
