<svg width="16" height="16" viewBox="0 0 16 16" fill="none" xmlns="http://www.w3.org/2000/svg">
<g id="database-03">
<path id="Icon" d="M9.33333 13.3334C9.33333 14.0698 8.73638 14.6667 8 14.6667C7.26362 14.6667 6.66667 14.0698 6.66667 13.3334M9.33333 13.3334C9.33333 12.597 8.73638 12 8 12M9.33333 13.3334H14M6.66667 13.3334C6.66667 12.597 7.26362 12 8 12M6.66667 13.3334H2M8 12V9.33337M14 3.33337C14 4.43794 11.3137 5.33337 8 5.33337C4.68629 5.33337 2 4.43794 2 3.33337M14 3.33337C14 2.2288 11.3137 1.33337 8 1.33337C4.68629 1.33337 2 2.2288 2 3.33337M14 3.33337V7.33337C14 8.44004 11.3333 9.33337 8 9.33337M2 3.33337V7.33337C2 8.44004 4.66667 9.33337 8 9.33337" stroke="white" stroke-opacity="0.6" stroke-linecap="round" stroke-linejoin="round"/>
</g>
</svg>
