<svg width="16" height="16" viewBox="0 0 16 16" fill="none" xmlns="http://www.w3.org/2000/svg">
<g id="monitor-02">
<path id="Icon" d="M5.04657 14C5.93644 13.5732 6.93868 13.3333 7.9987 13.3333C9.05872 13.3333 10.061 13.5732 10.9508 14M4.53203 11.3333H11.4654C12.5855 11.3333 13.1455 11.3333 13.5733 11.1153C13.9497 10.9236 14.2556 10.6176 14.4474 10.2413C14.6654 9.81349 14.6654 9.25344 14.6654 8.13333V5.2C14.6654 4.0799 14.6654 3.51984 14.4474 3.09202C14.2556 2.71569 13.9497 2.40973 13.5733 2.21799C13.1455 2 12.5855 2 11.4654 2H4.53203C3.41193 2 2.85187 2 2.42405 2.21799C2.04773 2.40973 1.74176 2.71569 1.55002 3.09202C1.33203 3.51984 1.33203 4.0799 1.33203 5.2V8.13333C1.33203 9.25344 1.33203 9.81349 1.55002 10.2413C1.74176 10.6176 2.04773 10.9236 2.42405 11.1153C2.85187 11.3333 3.41193 11.3333 4.53203 11.3333Z" stroke="currentColor" stroke-linecap="round" stroke-linejoin="round"/>
</g>
</svg>
