<svg width="16" height="16" viewBox="0 0 16 16" fill="none" xmlns="http://www.w3.org/2000/svg">
<g id="server-01" clip-path="url(#clip0_2454_45500)">
<path id="Icon" d="M4.00065 4.00004H4.00732M4.00065 12H4.00732M3.46732 6.66671H12.534C13.2807 6.66671 13.6541 6.66671 13.9393 6.52138C14.1902 6.39355 14.3942 6.18958 14.522 5.93869C14.6673 5.65348 14.6673 5.28011 14.6673 4.53337V3.46671C14.6673 2.71997 14.6673 2.3466 14.522 2.06139C14.3942 1.8105 14.1902 1.60653 13.9393 1.4787C13.6541 1.33337 13.2807 1.33337 12.534 1.33337H3.46732C2.72058 1.33337 2.34721 1.33337 2.062 1.4787C1.81111 1.60653 1.60714 1.8105 1.47931 2.06139C1.33398 2.3466 1.33398 2.71997 1.33398 3.46671V4.53337C1.33398 5.28011 1.33398 5.65348 1.47931 5.93869C1.60714 6.18958 1.81111 6.39355 2.062 6.52138C2.34721 6.66671 2.72058 6.66671 3.46732 6.66671ZM3.46732 14.6667H12.534C13.2807 14.6667 13.6541 14.6667 13.9393 14.5214C14.1902 14.3936 14.3942 14.1896 14.522 13.9387C14.6673 13.6535 14.6673 13.2801 14.6673 12.5334V11.4667C14.6673 10.72 14.6673 10.3466 14.522 10.0614C14.3942 9.8105 14.1902 9.60653 13.9393 9.4787C13.6541 9.33337 13.2807 9.33337 12.534 9.33337H3.46732C2.72058 9.33337 2.34721 9.33337 2.062 9.4787C1.81111 9.60653 1.60714 9.8105 1.47931 10.0614C1.33398 10.3466 1.33398 10.72 1.33398 11.4667V12.5334C1.33398 13.2801 1.33398 13.6535 1.47931 13.9387C1.60714 14.1896 1.81111 14.3936 2.062 14.5214C2.34721 14.6667 2.72058 14.6667 3.46732 14.6667Z" stroke="currentColor"  stroke-linecap="round" stroke-linejoin="round"/>
</g>
<defs>
<clipPath id="clip0_2454_45500">
<rect width="16" height="16" fill="white"/>
</clipPath>
</defs>
</svg>
