<svg width="16" height="16" viewBox="0 0 16 16" fill="none" xmlns="http://www.w3.org/2000/svg">
<g id="settings-02">
<g id="Icon">
<path d="M6.26271 12.9138L6.65234 13.79C6.76817 14.0509 6.95719 14.2725 7.19649 14.4281C7.43579 14.5836 7.71508 14.6664 8.00049 14.6663C8.2859 14.6664 8.56519 14.5836 8.80449 14.4281C9.04378 14.2725 9.23281 14.0509 9.34864 13.79L9.73827 12.9138C9.87696 12.6028 10.1103 12.3436 10.4049 12.173C10.7015 12.002 11.0445 11.9291 11.3849 11.9649L12.3383 12.0663C12.622 12.0964 12.9084 12.0434 13.1627 11.9139C13.417 11.7844 13.6283 11.5839 13.7709 11.3367C13.9136 11.0897 13.9817 10.8065 13.9667 10.5216C13.9517 10.2367 13.8543 9.96221 13.6864 9.73153L13.122 8.95597C12.921 8.67776 12.8136 8.34288 12.8153 7.99967C12.8152 7.6574 12.9236 7.32391 13.1249 7.04708L13.6894 6.27153C13.8573 6.04084 13.9547 5.76639 13.9696 5.48146C13.9846 5.19653 13.9166 4.91337 13.7738 4.66634C13.6312 4.41916 13.42 4.21867 13.1657 4.08916C12.9114 3.95965 12.625 3.90669 12.3412 3.93671L11.3879 4.03819C11.0474 4.07395 10.7044 4.00109 10.4079 3.83004C10.1126 3.65851 9.87928 3.39791 9.74123 3.0856L9.34864 2.2093C9.23281 1.94846 9.04378 1.72682 8.80449 1.57127C8.56519 1.41573 8.2859 1.33296 8.00049 1.33301C7.71508 1.33296 7.43579 1.41573 7.19649 1.57127C6.95719 1.72682 6.76817 1.94846 6.65234 2.2093L6.26271 3.0856C6.12466 3.39791 5.89129 3.65851 5.59604 3.83004C5.29952 4.00109 4.95649 4.07395 4.61604 4.03819L3.65975 3.93671C3.37597 3.90669 3.08957 3.95965 2.83529 4.08916C2.58101 4.21867 2.36976 4.41916 2.22715 4.66634C2.08437 4.91337 2.01634 5.19653 2.03133 5.48146C2.04632 5.76639 2.14368 6.04084 2.3116 6.27153L2.87604 7.04708C3.07734 7.32391 3.18574 7.6574 3.18567 7.99967C3.18574 8.34195 3.07734 8.67544 2.87604 8.95227L2.3116 9.72782C2.14368 9.95851 2.04632 10.233 2.03133 10.5179C2.01634 10.8028 2.08437 11.086 2.22715 11.333C2.3699 11.5801 2.58117 11.7804 2.83542 11.9099C3.08967 12.0394 3.37599 12.0925 3.65975 12.0626L4.61308 11.9612C4.95353 11.9254 5.29656 11.9983 5.59308 12.1693C5.88943 12.3404 6.12389 12.601 6.26271 12.9138Z" stroke="currentColor"  stroke-linecap="round" stroke-linejoin="round"/>
<path d="M7.9993 9.99967C9.10387 9.99967 9.9993 9.10424 9.9993 7.99967C9.9993 6.89511 9.10387 5.99967 7.9993 5.99967C6.89473 5.99967 5.9993 6.89511 5.9993 7.99967C5.9993 9.10424 6.89473 9.99967 7.9993 9.99967Z" stroke="currentColor"  stroke-linecap="round" stroke-linejoin="round"/>
</g>
</g>
</svg>
