<svg width="16" height="16" viewBox="0 0 16 16" fill="none" xmlns="http://www.w3.org/2000/svg">
<g id="folder-solid">
<path id="Vector" fill-rule="evenodd" clip-rule="evenodd" d="M0.666016 4.10843C0.666005 3.75701 0.665995 3.45382 0.686396 3.20411C0.707929 2.94054 0.755476 2.6784 0.884003 2.42614C1.07575 2.04982 1.38171 1.74386 1.75804 1.55212C2.01029 1.42358 2.27244 1.37604 2.536 1.3545C2.78572 1.3341 3.08889 1.33412 3.44032 1.33412L6.09712 1.33406C6.49283 1.33353 6.84082 1.33307 7.16075 1.44344C7.44102 1.5401 7.69628 1.69786 7.90808 1.90529C8.14988 2.14212 8.30508 2.45358 8.48162 2.80774L9.07795 4.00065H11.4935C12.0302 4.00064 12.4731 4.00064 12.8339 4.03011C13.2086 4.06073 13.5531 4.12644 13.8767 4.2913C14.3784 4.54696 14.7863 4.95491 15.042 5.45668C15.2069 5.78023 15.2726 6.1247 15.3032 6.49943C15.3327 6.86025 15.3327 7.30312 15.3327 7.83978V10.8282C15.3327 11.3649 15.3327 11.8077 15.3032 12.1685C15.2726 12.5433 15.2069 12.8877 15.042 13.2113C14.7863 13.713 14.3784 14.121 13.8767 14.3766C13.5531 14.5415 13.2086 14.6072 12.8339 14.6378C12.4731 14.6673 12.0302 14.6673 11.4935 14.6673H4.50517C3.96852 14.6673 3.5256 14.6673 3.1648 14.6378C2.79007 14.6072 2.4456 14.5415 2.12204 14.3766C1.62028 14.121 1.21233 13.713 0.956669 13.2113C0.791803 12.8877 0.726096 12.5433 0.695483 12.1685C0.666001 11.8077 0.666008 11.3649 0.666016 10.8282V4.10843ZM6.01421 2.66746C6.54116 2.66746 6.6456 2.67616 6.72602 2.7039C6.81942 2.73612 6.90455 2.7887 6.97515 2.85785C7.03588 2.91737 7.09042 3.0069 7.32602 3.47822L7.58728 4.00065H1.9994C1.9997 3.69066 2.00174 3.47876 2.0153 3.31268C2.0301 3.13158 2.05522 3.06443 2.07202 3.03146C2.13593 2.90602 2.23792 2.80404 2.36336 2.74012C2.39632 2.72333 2.46347 2.69821 2.64458 2.68341C2.83347 2.66798 3.08165 2.66746 3.46602 2.66746H6.01421Z" fill="currentColor"/>
</g>
</svg>
